<svg xmlns="http://www.w3.org/2000/svg" viewBox="0 0 1000 1000" width="1000" height="1000" preserveAspectRatio="xMidYMid meet" style="width: 100%; height: 100%; transform: translate3d(0px, 0px, 0px);"><defs><clipPath id="__lottie_element_13"><rect width="1000" height="1000" x="0" y="0"></rect></clipPath></defs><g clip-path="url(#__lottie_element_13)"><g transform="matrix(1,0,0,1,0,0)" opacity="1" style="display: block;"><g opacity="1" transform="matrix(1,0,0,1,653.14501953125,580.2360229492188)"><path fill="rgb(158,31,31)" fill-opacity="1" d=" M-128.4320068359375,-112.94499969482422 C-128.4320068359375,-112.94499969482422 -82.4540023803711,-181.65199279785156 -1.9789999723434448,-109.08000183105469 C-1.9789999723434448,-109.08000183105469 30.948158264160156,-70.85523223876953 67.09323120117188,-36.225868225097656 C67.09323120117188,-36.225868225097656 110.34644317626953,-0.009108203463256359 146.2862548828125,29.04427146911621 C169.44808959960938,46.61204528808594 218.51190185546875,79.0028305053711 232.05389404296875,117.31451416015625 C241.18971252441406,121.40546417236328 247.4196014404297,126.88257598876953 264.3460998535156,122.49565124511719 C264.3460998535156,122.49565124511719 268.1976013183594,147.8820037841797 209.27659606933594,127.04499816894531 C209.27659606933594,127.04499816894531 184.89894104003906,117.64351654052734 176.43113708496094,128.9942626953125 C171.8695831298828,131.63186645507812 146.0584716796875,148.2766876220703 97.18800354003906,131.35699462890625 C97.18800354003906,131.35699462890625 81.37899780273438,124.88899993896484 56.229000091552734,142.85299682617188 C56.229000091552734,142.85299682617188 27.229066848754883,169.20767211914062 -4.975891590118408,144.25363159179688 C-17.57472801208496,134.69102478027344 -216.09500122070312,-12.35200023651123 -216.09500122070312,-12.35200023651123 C-216.09500122070312,-12.35200023651123 -274.2959899902344,-41.81100082397461 -250.58299255371094,-66.95899963378906 C-250.58299255371094,-66.95899963378906 -206.03599548339844,-145.9980010986328 -152.14599609375,-110.79000091552734 C-152.14599609375,-110.79000091552734 -132.031005859375,-108.63800048828125 -128.4320068359375,-112.94499969482422z"></path></g><g opacity="1" transform="matrix(1,0,0,1,589.5590209960938,622.5809936523438)"><path stroke-linecap="butt" stroke-linejoin="miter" fill-opacity="0" stroke-miterlimit="10" stroke="rgb(113,26,26)" stroke-opacity="1" stroke-width="1" d=" M-114.53500366210938,-95.25299835205078 C-114.53500366210938,-95.25299835205078 -109.76100158691406,-57.82600021362305 -84.74299621582031,-62.45000076293945 C-84.74299621582031,-62.45000076293945 17.350000381469727,-104.63500213623047 47.994998931884766,-24.839000701904297 C56.08599853515625,-3.7730000019073486 50.6609992980957,16.40999984741211 76.93000030517578,56.308998107910156 C82.00199890136719,64.01499938964844 108.45800018310547,95.22599792480469 114.53500366210938,104.63500213623047"></path></g><g opacity="1" transform="matrix(1,0,0,1,720.7130126953125,675.291015625)"><path fill="rgb(113,26,26)" fill-opacity="1" d=" M29.6200008392334,36.30099868774414 C29.6200008392334,36.30099868774414 -8.850953102111816,-11.42257308959961 -29.621000289916992,-57.829750061035156 C-29.621000289916992,-57.829750061035156 -2.5258147716522217,11.702816009521484 22.097999572753906,35.18000030517578 C22.097999572753906,35.18000030517578 26.562999725341797,35.573001861572266 29.6200008392334,36.30099868774414z"></path></g><g opacity="1" transform="matrix(1,0,0,1,762.6380004882812,641.4459838867188)"><path fill="rgb(113,26,26)" fill-opacity="1" d=" M71.48999786376953,63.150001525878906 C71.48999786376953,63.150001525878906 13.39102554321289,19.289058685302734 -54.89777374267578,-68.57243347167969 C-54.89777374267578,-68.57243347167969 26.836999893188477,44.79499816894531 66.1520004272461,66.60299682617188 C66.1520004272461,66.60299682617188 68.4209976196289,64.33799743652344 71.48999786376953,63.150001525878906z"></path></g><g opacity="1" transform="matrix(1,0,0,1,452.3710021972656,565.52197265625)"><path fill="rgb(158,31,31)" fill-opacity="1" d=" M26.02199935913086,-2.8259999752044678 C26.02199935913086,-2.8259999752044678 15.545999526977539,12.831999778747559 3.0850000381469727,18.13800048828125 C-5.294000148773193,21.70599937438965 -15.897000312805176,20.007999420166016 -19.834999084472656,7.926000118255615 C-26.023000717163086,-11.055000305175781 18.384000778198242,-21.70599937438965 26.02199935913086,-2.8259999752044678z"></path></g><g opacity="1" transform="matrix(1,0,0,1,451.7170104980469,570.791015625)"><path stroke-linecap="butt" stroke-linejoin="miter" fill-opacity="0" stroke-miterlimit="10" stroke="rgb(113,26,26)" stroke-opacity="1" stroke-width="1" d=" M6.000999927520752,13.07800006866455 C6.000999927520752,13.07800006866455 -5.776000022888184,17.889999389648438 -14.805999755859375,10.303999900817871 C-19.506999969482422,6.353000164031982 -19.947999954223633,-2.009000062942505 -19.947999954223633,-2.009000062942505 C-19.947999954223633,-2.009000062942505 19.948999404907227,-17.889999389648438 19.948999404907227,-17.889999389648438 C19.948999404907227,-17.889999389648438 12.972000122070312,14.800000190734863 -2.763000011444092,14.800000190734863"></path></g><g opacity="1" transform="matrix(1,0,0,1,481.2460021972656,549.9320068359375)"><path fill="rgb(219,149,141)" fill-opacity="1" d=" M9.21500015258789,-32.59400177001953 C9.21500015258789,-32.59400177001953 21.83300018310547,-14.571999549865723 21.83300018310547,-14.571999549865723 C21.83300018310547,-14.571999549865723 22.04400062561035,21.082000732421875 9.050000190734863,32.59400177001953 C9.050000190734863,32.59400177001953 2.125,30.551000595092773 -8.944000244140625,11.789999961853027 C-12.388999938964844,5.960000038146973 -22.042999267578125,-6.927999973297119 -22.042999267578125,-6.927999973297119 C-22.042999267578125,-6.927999973297119 9.21500015258789,-32.59400177001953 9.21500015258789,-32.59400177001953z"></path></g><g opacity="1" transform="matrix(1,0,0,1,477.625,623.72802734375)"><path fill="rgb(57,86,202)" fill-opacity="1" d=" M36.29399871826172,-88.61799621582031 C36.29399871826172,-88.61799621582031 58.520999908447266,-95.22699737548828 83.7509994506836,-93.61100006103516 C83.7509994506836,-93.61100006103516 109.12100219726562,-92.77400207519531 109.12100219726562,-92.77400207519531 C109.12100219726562,-92.77400207519531 133.70899963378906,-91.4020004272461 147.7989959716797,-87.73699951171875 C147.7989959716797,-87.73699951171875 157.9669952392578,-85.0719985961914 162.19200134277344,-81.48999786376953 C162.19200134277344,-81.48999786376953 168.92999267578125,-75.68000030517578 169.43299865722656,-63.507999420166016 C169.43299865722656,-63.507999420166016 165.36399841308594,-23.364999771118164 156.6479949951172,10.343000411987305 C156.6479949951172,10.343000411987305 142.12899780273438,6.1539998054504395 142.12899780273438,6.1539998054504395 C142.12899780273438,6.1539998054504395 142.2030029296875,-27.62700080871582 137.27200317382812,-44.79800033569336 C133.44200134277344,-58.145999908447266 127.24400329589844,-54.69900131225586 123.18499755859375,-54.18899917602539 C117.4800033569336,-53.46500015258789 100.52999877929688,-50.143001556396484 100.52999877929688,-50.143001556396484 C100.52999877929688,-50.143001556396484 134.39199829101562,-3.053999900817871 134.39199829101562,-3.053999900817871 C134.39199829101562,-3.053999900817871 149.0679931640625,14.449999809265137 142.6199951171875,26.882999420166016 C142.6199951171875,26.882999420166016 83.38899993896484,79.01200103759766 54.8120002746582,95.22699737548828 C54.8120002746582,95.22699737548828 49.11899948120117,90.89900207519531 44.52399826049805,90.14800262451172 C30.57900047302246,87.88700103759766 41.29899978637695,79.94200134277344 37.034000396728516,73.96399688720703 C24.371000289916992,56.20199966430664 6.423999786376953,28.91200065612793 1.0369999408721924,20.638999938964844 C1.0369999408721924,20.638999938964844 -51.172000885009766,18.631000518798828 -64.9219970703125,17.361000061035156 C-84.76799774169922,15.536999702453613 -142.9929962158203,10.024999618530273 -165.09500122070312,2.5220000743865967 C-168.28599548339844,1.4390000104904175 -169.4340057373047,-8.479000091552734 -164.85800170898438,-17.69300079345703 C-161.5070037841797,-24.447999954223633 -40.43000030517578,-20.513999938964844 -26.173999786376953,-27.08099937438965 C-26.173999786376953,-27.08099937438965 -19.87299919128418,-43.44499969482422 -5.11299991607666,-61.702999114990234 C-5.11299991607666,-61.702999114990234 11.300999641418457,-38.49700164794922 11.300999641418457,-38.49700164794922 C11.300999641418457,-38.49700164794922 24.141000747680664,-55.60300064086914 26.454999923706055,-86.55400085449219 C26.454999923706055,-86.55400085449219 36.29399871826172,-88.61799621582031 36.29399871826172,-88.61799621582031z"></path></g><g opacity="1" transform="matrix(1,0,0,1,518.364990234375,635.322998046875)"><path fill="rgb(57,59,157)" fill-opacity="1" d=" M-22.674999237060547,-63.29899978637695 C-22.674999237060547,-63.29899978637695 -28.069000244140625,-52.79800033569336 -28.069000244140625,-52.79800033569336 C-28.069000244140625,-52.79800033569336 -34.43899917602539,-57.98699951171875 -34.43899917602539,-57.98699951171875 C-34.43899917602539,-57.98699951171875 -41.76599884033203,-53.20199966430664 -44.42499923706055,-39.28499984741211 C-44.42499923706055,-39.28499984741211 -33.7400016784668,-50.22600173950195 -31.047000885009766,-51.78099822998047 C-31.047000885009766,-51.78099822998047 42.99800109863281,64.91200256347656 42.99800109863281,64.91200256347656 C42.99800109863281,64.91200256347656 44.42499923706055,64.08799743652344 44.42499923706055,64.08799743652344 C44.42499923706055,64.08799743652344 -23.559999465942383,-47.354000091552734 -23.559999465942383,-47.354000091552734 C-23.559999465942383,-47.354000091552734 -22.381000518798828,-57.4739990234375 -21.111000061035156,-60.08300018310547 C-21.111000061035156,-60.08300018310547 3.056999921798706,-60.48099899291992 3.056999921798706,-60.48099899291992 C3.056999921798706,-60.48099899291992 -6.5929999351501465,-64.91200256347656 -22.674999237060547,-63.29899978637695z"></path></g><g opacity="1" transform="matrix(1,0,0,1,508.5559997558594,553.5999755859375)"><path fill="rgb(32,45,136)" fill-opacity="1" d=" M-7.581999778747559,-21.242000579833984 C-7.581999778747559,-21.242000579833984 -12.866999626159668,18.423999786376953 -12.866999626159668,18.423999786376953 C-12.866999626159668,18.423999786376953 12.866999626159668,21.242000579833984 12.866999626159668,21.242000579833984 C12.866999626159668,21.242000579833984 8.621999740600586,-19.350000381469727 8.621999740600586,-19.350000381469727 C8.621999740600586,-19.350000381469727 -7.581999778747559,-21.242000579833984 -7.581999778747559,-21.242000579833984z"></path></g><g opacity="1" transform="matrix(1,0,0,1,472.635986328125,575.697021484375)"><path fill="rgb(32,45,136)" fill-opacity="1" d=" M-4.513000011444092,-20.341999053955078 C-4.513000011444092,-20.341999053955078 11.288999557495117,1.6399999856948853 11.288999557495117,1.6399999856948853 C11.288999557495117,1.6399999856948853 4.151000022888184,11.118000030517578 1.3029999732971191,20.340999603271484 C1.3029999732971191,20.340999603271484 -11.288999557495117,-8.37399959564209 -4.513000011444092,-20.341999053955078z"></path></g><g opacity="1" transform="matrix(1,0,0,1,584.573974609375,616.2150268554688)"><path fill="rgb(57,59,157)" fill-opacity="1" d=" M-44.236000061035156,-74.30400085449219 C-44.236000061035156,-74.30400085449219 -29.422000885009766,-43.40299987792969 -12.026000022888184,-42.15599822998047 C-12.026000022888184,-42.15599822998047 -14.197999954223633,-23.732999801635742 15.281000137329102,3.4830000400543213 C15.281000137329102,3.4830000400543213 25.145000457763672,12.07800006866455 22.45199966430664,22.222999572753906 C22.45199966430664,22.222999572753906 13.428000450134277,51.178001403808594 -12.722000122070312,74.30400085449219 C-12.722000122070312,74.30400085449219 -7.546999931335449,73.23300170898438 35.672000885009766,34.395999908447266 C35.672000885009766,34.395999908447266 44.23699951171875,25.336999893188477 25.155000686645508,1.2300000190734863 C25.155000686645508,1.2300000190734863 -7.9770002365112305,-44.82600021362305 -7.9770002365112305,-44.82600021362305 C-7.9770002365112305,-44.82600021362305 -26.535999298095703,-52.95500183105469 -44.236000061035156,-74.30400085449219z"></path></g><g opacity="1" transform="matrix(1,0,0,1,582.4760131835938,580.7670288085938)"><path fill="rgb(57,59,157)" fill-opacity="1" d=" M-65.29900360107422,-46.516998291015625 C-65.29900360107422,-46.516998291015625 -45.62099838256836,-53.38100051879883 -16.172000885009766,-51.93199920654297 C4.804999828338623,-50.90700149536133 29.04800033569336,-49.611000061035156 42.145999908447266,-45.92300033569336 C48.82899856567383,-44.04100036621094 59.926998138427734,-41.492000579833984 63.611000061035156,-30.05699920654297 C65.02100372314453,-25.64900016784668 64.78099822998047,-23.766000747680664 64.76499938964844,-12.232000350952148 C64.73999786376953,11.406999588012695 52.09600067138672,53.38100051879883 52.09600067138672,53.38100051879883 C52.09600067138672,53.38100051879883 49.637001037597656,52.72999954223633 47.619998931884766,52.145999908447266 C47.619998931884766,52.145999908447266 65.2979965209961,4.334000110626221 60.17399978637695,-25.652000427246094 C59.5260009765625,-29.466999053955078 57.34199905395508,-36.03200149536133 48.667999267578125,-39.46500015258789 C33.167999267578125,-45.599998474121094 -2.5309998989105225,-47.71900177001953 -18.11199951171875,-48.50400161743164 C-28.458999633789062,-49.020999908447266 -54.03499984741211,-47.744998931884766 -54.03499984741211,-47.744998931884766 C-54.03499984741211,-47.744998931884766 -65.29900360107422,-46.516998291015625 -65.29900360107422,-46.516998291015625z"></path></g><g opacity="1" transform="matrix(1,0,0,1,397.0429992675781,636.1329956054688)"><path fill="rgb(57,59,157)" fill-opacity="1" d=" M66.88899993896484,-16.135000228881836 C66.88899993896484,-16.135000228881836 69.27400207519531,-6.630000114440918 73.76000213623047,1.2510000467300415 C73.76000213623047,1.2510000467300415 52.40800094604492,2.0789999961853027 39.52000045776367,1.9079999923706055 C33.88100051879883,1.8350000381469727 3.135999917984009,-0.00800000037997961 -23.405000686645508,-2.4130001068115234 C-48.43199920654297,-4.675000190734863 -86.79900360107422,-12.758000373840332 -86.79900360107422,-12.758000373840332 C-86.79900360107422,-12.758000373840332 -86.5009994506836,-8.696000099182129 -76.7979965209961,-6.88100004196167 C-48.81399917602539,-1.6319999694824219 -5.066999912261963,3.7330000400543213 5.839000225067139,4.611999988555908 C25.763999938964844,6.216000080108643 52.09400177001953,7.196000099182129 69.95999908447266,7.789000034332275 C73.98500061035156,7.921000003814697 80.86699676513672,8.680999755859375 80.86699676513672,8.680999755859375 C80.86699676513672,8.680999755859375 86.7979965209961,16.13599967956543 86.7979965209961,16.13599967956543 C86.7979965209961,16.13599967956543 66.88899993896484,-16.135000228881836 66.88899993896484,-16.135000228881836z"></path></g><g opacity="1" transform="matrix(1,0,0,1,606.344970703125,649.6699829101562)"><path fill="rgb(238,194,182)" fill-opacity="1" d=" M25.225000381469727,-12.430000305175781 C26.354999542236328,-6.980000019073486 18.655000686645508,-1.590000033378601 18.655000686645508,-1.590000033378601 C14.543999671936035,0.4099999964237213 10.954000473022461,1.7300000190734863 7.834000110626221,2.5199999809265137 C7.834000110626221,2.5199999809265137 -1.8259999752044678,6.888999938964844 -1.8259999752044678,6.888999938964844 C-1.8259999752044678,6.888999938964844 -4.785999774932861,15.218999862670898 -4.785999774932861,15.218999862670898 C-8.416000366210938,19.270000457763672 -11.114999771118164,15.630000114440918 -11.114999771118164,15.630000114440918 C-11.114999771118164,15.630000114440918 -10.6850004196167,14.65999984741211 -10.086000442504883,13.279999732971191 C-14.206000328063965,17.829999923706055 -16.985000610351562,14.109999656677246 -16.985000610351562,14.109999656677246 C-16.985000610351562,14.109999656677246 -16.496000289916992,12.928999900817871 -15.826000213623047,11.298999786376953 C-19.666000366210938,14.859999656677246 -22.21500015258789,11.449999809265137 -22.21500015258789,11.449999809265137 C-22.21500015258789,11.449999809265137 -21.934999465942383,10.75 -21.485000610351562,9.670000076293945 C-24.475000381469727,11.75 -26.354999542236328,9.369999885559082 -26.354999542236328,9.369999885559082 C-25.80500030517578,1.2799999713897705 -21.21500015258789,-6.5 -21.21500015258789,-6.5 C-21.135000228881836,-7.21999979019165 -18.475000381469727,-9.170000076293945 -18.475000381469727,-9.170000076293945 C-17.315000534057617,-9.930000305175781 -13.505000114440918,-11.970000267028809 -10.595000267028809,-13.491000175476074 C-10.586000442504883,-13.5 -10.576000213623047,-13.5 -10.576000213623047,-13.5 C-9.8149995803833,-14.151000022888184 -8.854999542236328,-14.760000228881836 -7.665999889373779,-15.3100004196167 C-2.496000051498413,-17.690000534057617 1.0839999914169312,-16.790000915527344 5.485000133514404,-17.0310001373291 C11.385000228881836,-17.329999923706055 15.104999542236328,-19.270000457763672 15.104999542236328,-19.270000457763672 C15.104999542236328,-19.270000457763672 26.04400062561035,-16.079999923706055 26.04400062561035,-16.079999923706055 C25.2450008392334,-14.281000137329102 24.913999557495117,-13.920000076293945 25.225000381469727,-12.430000305175781z"></path></g><g opacity="1" transform="matrix(1,0,0,1,484.4590148925781,538.7540283203125)"><path stroke-linecap="butt" stroke-linejoin="miter" fill-opacity="0" stroke-miterlimit="10" stroke="rgb(113,26,26)" stroke-opacity="1" stroke-width="0.75" d=" M17.30699920654297,-16.2810001373291 C17.30699920654297,-16.2810001373291 -0.23000000417232513,9.84000015258789 -17.308000564575195,16.281999588012695"></path></g><g opacity="1" transform="matrix(1,0,0,1,484.70599365234375,542.3560180664062)"><path stroke-linecap="butt" stroke-linejoin="miter" fill-opacity="0" stroke-miterlimit="10" stroke="rgb(113,26,26)" stroke-opacity="1" stroke-width="0.5" d=" M11.937000274658203,6.060999870300293 C11.937000274658203,6.060999870300293 -8.515000343322754,-7.0920000076293945 -11.510000228881836,2.1649999618530273 C-11.935999870300293,3.4830000400543213 -11.288000106811523,5.366000175476074 -6.448999881744385,4.38700008392334 C-1.444000005722046,3.374000072479248 2.736999988555908,-1.8009999990463257 3.802000045776367,-6.380000114440918 C4.888999938964844,-11.059000015258789 -3.0989999771118164,-12.99899959564209 -1.2100000381469727,-4.043000221252441 C-0.014000000432133675,1.6319999694824219 3.3239998817443848,12.99899959564209 3.3239998817443848,12.99899959564209"></path></g><g opacity="1" transform="matrix(1,0,0,1,593.5280151367188,649.3560180664062)"><path fill="rgb(213,154,153)" fill-opacity="1" d=" M-9.291000366210938,10.368000030517578 C-9.291000366210938,10.368000030517578 -6.039999961853027,0.4749999940395355 -4.466000080108643,-1.8639999628067017 C-4.466000080108643,-1.8639999628067017 -3.7850000858306885,-3.506999969482422 -1.909999966621399,-4.7779998779296875 C-0.13099999725818634,-5.982999801635742 3.503000020980835,-7.839000225067139 7.813000202178955,-9.906999588012695 C10.58899974822998,-11.23799991607666 8.640999794006348,-9.27299976348877 8.460000038146973,-9.105999946594238 C6.604000091552734,-7.364999771118164 -1.5119999647140503,-4.763999938964844 -3.1700000762939453,-2.3980000019073486 C-4.644999980926514,-0.3070000112056732 -5.453000068664551,7.406000137329102 -7.926000118255615,9.409000396728516 C-8.508999824523926,9.876999855041504 -9.291000366210938,10.368000030517578 -9.291000366210938,10.368000030517578z"></path></g><g opacity="1" transform="matrix(1,0,0,1,598.781982421875,651.9970092773438)"><path fill="rgb(213,154,153)" fill-opacity="1" d=" M-8.87399959564209,9.494999885559082 C-8.87399959564209,9.494999885559082 -6.802999973297119,3.2790000438690186 -5.439000129699707,-0.06800000369548798 C-5.146999835968018,-0.8029999732971191 -4.372000217437744,-2.390000104904175 -3.2880001068115234,-3.0329999923706055 C-0.37599998712539673,-4.7870001792907715 4.270999908447266,-7.125 6.730000019073486,-8.392000198364258 C8.87399959564209,-9.494000434875488 7.322000026702881,-7.546999931335449 7.322000026702881,-7.546999931335449 C7.322000026702881,-7.546999931335449 -1.7970000505447388,-2.559999942779541 -3.178999900817871,-1.3799999952316284 C-3.178999900817871,-1.3799999952316284 -5.327000141143799,3.433000087738037 -7.51800012588501,8.223999977111816 C-7.51800012588501,8.223999977111816 -8.032999992370605,8.90999984741211 -8.87399959564209,9.494999885559082z"></path></g><g opacity="1" transform="matrix(1,0,0,1,602.656005859375,655.9940185546875)"><path fill="rgb(213,154,153)" fill-opacity="1" d=" M-7.322999954223633,7.855000019073486 C-7.322999954223633,7.855000019073486 -5.1519999504089355,1.8799999952316284 -4.117000102996826,-0.765999972820282 C-4.117000102996826,-0.765999972820282 -3.61299991607666,-2.2709999084472656 -1.9170000553131104,-3.2160000801086426 C-1.9170000553131104,-3.2160000801086426 6.577000141143799,-7.551000118255615 6.577000141143799,-7.551000118255615 C6.577000141143799,-7.551000118255615 7.322000026702881,-7.855999946594238 6.879000186920166,-7.11899995803833 C6.879000186920166,-7.11899995803833 -2.4110000133514404,-1.7450000047683716 -2.4110000133514404,-1.7450000047683716 C-2.4110000133514404,-1.7450000047683716 -5.367000102996826,5.736000061035156 -5.367000102996826,5.736000061035156 C-5.367000102996826,5.736000061035156 -5.988999843597412,7.070000171661377 -7.322999954223633,7.855000019073486z"></path></g><g opacity="1" transform="matrix(1,0,0,1,282.0849914550781,612.8900146484375)"><path fill="rgb(238,194,182)" fill-opacity="1" d=" M-26.288000106811523,5.579999923706055 C-26.288000106811523,5.579999923706055 -29.94099998474121,30.18199920654297 3.247999906539917,22.47800064086914 C3.247999906539917,22.47800064086914 21.315000534057617,16.784000396728516 28.547000885009766,11.517999649047852 C28.547000885009766,11.517999649047852 27.709999084472656,8.27299976348877 28.645999908447266,1.5720000267028809 C29.54400062561035,-4.854000091552734 31.655000686645508,-7.625 31.655000686645508,-7.625 C31.655000686645508,-7.625 9.125,-17.09600067138672 -0.7260000109672546,-20.17799949645996 C-16.159000396728516,-25.006999969482422 -16.982999801635742,-30.183000564575195 -31.6560001373291,-18.55299949645996 C-31.6560001373291,-18.55299949645996 -26.288000106811523,5.579999923706055 -26.288000106811523,5.579999923706055z"></path></g><g opacity="1" transform="matrix(1,0,0,1,265.1189880371094,625.530029296875)"><path fill="rgb(238,194,182)" fill-opacity="1" d=" M-13.666999816894531,-7.455999851226807 C-13.666999816894531,-7.455999851226807 -16.20599937438965,1.4190000295639038 -14.25100040435791,3.555000066757202 C-11.192000389099121,6.901000022888184 -2.046999931335449,10.545999526977539 3.111999988555908,11.371999740600586 C4.590000152587891,11.61299991607666 5.343999862670898,11.928000450134277 7.828999996185303,8.128000259399414 C10.135000228881836,4.60099983215332 14.628000259399414,-6.638999938964844 14.628000259399414,-6.638999938964844 C14.628000259399414,-6.638999938964844 16.204999923706055,-11.928000450134277 8.274999618530273,-10.692999839782715 C8.274999618530273,-10.692999839782715 2.1760001182556152,2.061000108718872 2.1760001182556152,2.061000108718872 C2.1760001182556152,2.061000108718872 -6.168000221252441,-1.319000005722046 -6.168000221252441,-1.319000005722046 C-6.168000221252441,-1.319000005722046 -5.114999771118164,-3.6570000648498535 -5.5960001945495605,-5.041999816894531 C-5.5960001945495605,-5.041999816894531 -8.359999656677246,-7.757999897003174 -13.666999816894531,-7.455999851226807z"></path></g><g opacity="1" transform="matrix(1,0,0,1,265.01800537109375,625.7620239257812)"><path fill="rgb(190,135,121)" fill-opacity="1" d=" M-14.85200023651123,-0.7009999752044678 C-14.85200023651123,-0.7009999752044678 -7.340000152587891,6.670000076293945 1.0520000457763672,8.664999961853027 C1.6799999475479126,8.814000129699707 2.8610000610351562,8.623000144958496 3.6500000953674316,8.039999961853027 C6.638999938964844,5.808000087738037 10.157999992370605,0.004000000189989805 14.850000381469727,-7.993000030517578 C14.850000381469727,-7.993000030517578 14.984000205993652,-9.833000183105469 12.947999954223633,-7.633999824523926 C10.26099967956543,-4.735000133514404 2.2009999752044678,6.960000038146973 2.2009999752044678,6.960000038146973 C2.2009999752044678,6.960000038146973 -14.640999794006348,-3.309999942779541 -14.640999794006348,-3.309999942779541 C-14.640999794006348,-3.309999942779541 -14.85200023651123,-0.7009999752044678 -14.85200023651123,-0.7009999752044678z"></path></g><g opacity="1" transform="matrix(1,0,0,1,264.80999755859375,623.010009765625)"><path fill="rgb(238,194,182)" fill-opacity="1" d=" M-13.220000267028809,-11.383000373840332 C-13.220000267028809,-11.383000373840332 -17.361000061035156,-2.99399995803833 -15.807000160217285,-0.515999972820282 C-13.364999771118164,3.368000030517578 -4.90500020980835,8.663999557495117 0.07999999821186066,10.425999641418457 C1.5140000581741333,10.928999900817871 2.2100000381469727,11.383000373840332 5.374000072479248,8.043999671936035 C8.307999610900879,4.952000141143799 14.821000099182129,-5.438000202178955 14.821000099182129,-5.438000202178955 C14.821000099182129,-5.438000202178955 17.361000061035156,-10.416999816894531 9.234999656677246,-10.63599967956543 C9.234999656677246,-10.63599967956543 0.8429999947547913,0.9739999771118164 0.8429999947547913,0.9739999771118164 C0.8429999947547913,0.9739999771118164 -6.868000030517578,-3.9110000133514404 -6.868000030517578,-3.9110000133514404 C-6.868000030517578,-3.9110000133514404 -5.386000156402588,-6.046999931335449 -5.617000102996826,-7.515999794006348 C-5.617000102996826,-7.515999794006348 -7.877999782562256,-10.722000122070312 -13.220000267028809,-11.383000373840332z"></path></g><g opacity="1" transform="matrix(1,0,0,1,263.656005859375,621.6820068359375)"><path fill="rgb(190,135,121)" fill-opacity="1" d=" M-14.376999855041504,-4.203000068664551 C-14.376999855041504,-4.203000068664551 -14.786999702453613,-2.572999954223633 -14.786999702453613,-2.572999954223633 C-14.786999702453613,-2.572999954223633 -8.062000274658203,5.546000003814697 -0.5450000166893005,8.336000442504883 C-0.028999999165534973,8.526000022888184 1.8890000581741333,8.625 3.4119999408721924,7.359000205993652 C6.839000225067139,4.49399995803833 11.295999526977539,0.9760000109672546 15.53600025177002,-7.770999908447266 C15.53600025177002,-7.770999908447266 14.725000381469727,-8.9350004196167 13.300999641418457,-8.208999633789062 C13.300999641418457,-8.208999633789062 7.288000106811523,3.1410000324249268 1.1699999570846558,6.4070000648498535 C1.1699999570846558,6.4070000648498535 -6.377999782562256,4.510000228881836 -15.53600025177002,-5.427000045776367"></path></g><g opacity="1" transform="matrix(1,0,0,1,262.31500244140625,615.5380249023438)"><path fill="rgb(238,194,182)" fill-opacity="1" d=" M-6.22599983215332,-15.270999908447266 C-6.22599983215332,-15.270999908447266 -18.16900062561035,-6.125 -16.43000030517578,-2.4019999504089355 C-14.074999809265137,2.6449999809265137 -1.0130000114440918,15.272000312805176 2.809999942779541,13.399999618530273 C8.479000091552734,10.609999656677246 14.835000038146973,1.3660000562667847 17.055999755859375,-4.114999771118164 C18.16900062561035,-6.853000164031982 9.793999671936035,-11.397000312805176 7.427000045776367,-10.312999725341797 C7.427000045776367,-10.312999725341797 1.5820000171661377,-0.48500001430511475 1.5820000171661377,-0.48500001430511475 C1.5820000171661377,-0.48500001430511475 -1.5509999990463257,-2.865000009536743 -1.5509999990463257,-2.865000009536743 C-1.5509999990463257,-2.865000009536743 0.5720000267028809,-4.552999973297119 2.510999917984009,-7.166999816894531 C2.510999917984009,-7.166999816894531 2.059999942779541,-12.508999824523926 -6.22599983215332,-15.270999908447266z"></path></g><g opacity="1" transform="matrix(1,0,0,1,263.1709899902344,616.4169921875)"><path fill="rgb(190,135,121)" fill-opacity="1" d=" M-15.699000358581543,-7.900000095367432 C-15.699000358581543,-7.900000095367432 -16.104000091552734,-7.339000225067139 -16.104000091552734,-7.339000225067139 C-16.104000091552734,-7.339000225067139 -6.617000102996826,6.965000152587891 0.7289999723434448,8.253999710083008 C0.7289999723434448,8.253999710083008 5.493000030517578,8.345000267028809 15.373000144958496,-3.0929999351501465 C15.718999862670898,-3.500999927520752 15.98900032043457,-4.215000152587891 16.104000091552734,-4.760000228881836 C16.104000091552734,-4.760000228881836 14.91100025177002,-4.179999828338623 14.91100025177002,-4.179999828338623 C14.91100025177002,-4.179999828338623 2.7869999408721924,8.562999725341797 0.13899999856948853,6.572000026702881 C0.13899999856948853,6.572000026702881 -9.218000411987305,0.6039999723434448 -15.414999961853027,-8.255000114440918 C-15.414999961853027,-8.255000114440918 -15.699000358581543,-7.900000095367432 -15.699000358581543,-7.900000095367432z"></path></g><g opacity="1" transform="matrix(1,0,0,1,264.9639892578125,610.969970703125)"><path fill="rgb(190,135,121)" fill-opacity="1" d=" M-0.7369999885559082,-4.179999828338623 C-0.7369999885559082,-4.179999828338623 -6.210999965667725,-0.3490000069141388 -6.10099983215332,1.2130000591278076 C-5.994999885559082,2.671999931335449 -1.9739999771118164,5.821000099182129 -0.5220000147819519,5.8979997634887695 C0.5230000019073486,5.955999851226807 6.103000164031982,-5.8979997634887695 6.103000164031982,-5.8979997634887695 C6.103000164031982,-5.8979997634887695 4.611999988555908,-5.742000102996826 4.611999988555908,-5.742000102996826 C4.611999988555908,-5.742000102996826 -1.1950000524520874,4.025000095367432 -1.1950000524520874,4.025000095367432 C-1.1950000524520874,4.025000095367432 -2.4809999465942383,3.00600004196167 -3.4040000438690186,2.312000036239624 C-3.86899995803833,1.9570000171661377 -4.135000228881836,1.496999979019165 -3.872999906539917,1.2940000295639038 C-2.6760001182556152,0.3580000102519989 -0.2750000059604645,-2.6089999675750732 -0.2750000059604645,-2.6089999675750732 C-0.2750000059604645,-2.6089999675750732 -0.7369999885559082,-4.179999828338623 -0.7369999885559082,-4.179999828338623z"></path></g><g opacity="1" transform="matrix(1,0,0,1,264.0899963378906,607.2760009765625)"><path fill="rgb(238,194,182)" fill-opacity="1" d=" M-6.166999816894531,-18.195999145507812 C-6.166999816894531,-18.195999145507812 -21.298999786376953,-9.02299976348877 -19.743999481201172,-4.449999809265137 C-17.631000518798828,1.7549999952316284 -3.9549999237060547,18.19499969482422 0.7590000033378601,16.486000061035156 C7.739999771118164,13.946999549865723 16.35300064086914,3.938999891281128 19.652000427246094,-2.193000078201294 C21.299999237060547,-5.251999855041504 12.071999549865723,-11.635000228881836 9.168999671936035,-10.663999557495117 C9.168999671936035,-10.663999557495117 1.0889999866485596,0.09399999678134918 1.0889999866485596,0.09399999678134918 C1.0889999866485596,0.09399999678134918 -2.2790000438690186,-3.0910000801086426 -2.2790000438690186,-3.0910000801086426 C-2.2790000438690186,-3.0910000801086426 0.4259999990463257,-4.798999786376953 3.013000011444092,-7.605000019073486 C3.013000011444092,-7.605000019073486 3.1730000972747803,-13.913000106811523 -6.166999816894531,-18.195999145507812z"></path></g><g opacity="1" transform="matrix(1,0,0,1,267.88800048828125,603.6519775390625)"><path fill="rgb(190,135,121)" fill-opacity="1" d=" M-1.2790000438690186,-5.910999774932861 C-1.2790000438690186,-5.910999774932861 -8.170000076293945,-2.13100004196167 -8.239999771118164,-0.2800000011920929 C-8.29800033569336,1.434999942779541 -4.000999927520752,5.629000186920166 -2.305000066757202,5.9070000648498535 C-1.093000054359436,6.104000091552734 8.241000175476074,-5.190000057220459 8.241000175476074,-5.190000057220459 C8.241000175476074,-5.190000057220459 6.275000095367432,-5.48199987411499 6.275000095367432,-5.48199987411499 C6.275000095367432,-5.48199987411499 -2.8570001125335693,3.63100004196167 -2.8570001125335693,3.63100004196167 C-2.8570001125335693,3.63100004196167 -4.229000091552734,2.2760000228881836 -5.2230000495910645,1.3420000076293945 C-5.7230000495910645,0.8700000047683716 -5.9029998779296875,0.382999986410141 -5.64900016784668,0.09799999743700027 C-4.2829999923706055,-1.4129999876022339 -0.9359999895095825,-4.015999794006348 -0.9359999895095825,-4.015999794006348 C-0.9359999895095825,-4.015999794006348 -1.2790000438690186,-5.910999774932861 -1.2790000438690186,-5.910999774932861z"></path></g><g opacity="1" transform="matrix(1,0,0,1,274.3349914550781,603.385009765625)"><path fill="rgb(238,194,182)" fill-opacity="1" d=" M8.496000289916992,-9.515000343322754 C8.496000289916992,-9.515000343322754 -11.390999794006348,-0.3440000116825104 -11.390999794006348,-0.3440000116825104 C-11.390999794006348,-0.3440000116825104 -17.106000900268555,2.1640000343322754 -17.041000366210938,5.408999919891357 C-16.961000442504883,8.932000160217285 -13.137999534606934,9.515000343322754 -6.793000221252441,7.4019999504089355 C-1.6080000400543213,5.671000003814697 -2.8389999866485596,6.02400016784668 4.703000068664551,2.9630000591278076 C9.833999633789062,0.8840000033378601 17.106000900268555,-3.2269999980926514 17.106000900268555,-3.2269999980926514 C17.106000900268555,-3.2269999980926514 8.496000289916992,-9.515000343322754 8.496000289916992,-9.515000343322754z"></path></g><g opacity="1" transform="matrix(1,0,0,1,274.4540100097656,605.8599853515625)"><path fill="rgb(190,135,121)" fill-opacity="1" d=" M16.358999252319336,-6.159999847412109 C16.358999252319336,-6.159999847412109 -13.003999710083008,9.42300033569336 -16.986000061035156,3.996999979019165 C-16.986000061035156,3.996999979019165 -16.639999389648438,8.692999839782715 -4.888000011444092,4.244999885559082 C-4.888000011444092,4.244999885559082 8.147000312805176,-0.2639999985694885 16.98699951171875,-5.702000141143799 C16.98699951171875,-5.702000141143799 16.358999252319336,-6.159999847412109 16.358999252319336,-6.159999847412109z"></path></g><g opacity="1" transform="matrix(1,0,0,1,225.125,502.11700439453125)"><path fill="rgb(234,172,163)" fill-opacity="1" d=" M-13.107000350952148,-37.01300048828125 C-13.107000350952148,-37.01300048828125 -31.229999542236328,-28.97100067138672 -27.55900001525879,-6.76200008392334 C-27.55900001525879,-6.76200008392334 -11.897000312805176,37.013999938964844 28.9060001373291,29.632999420166016 C28.9060001373291,29.632999420166016 31.229999542236328,-23.115999221801758 -13.107000350952148,-37.01300048828125z"></path></g><g opacity="1" transform="matrix(1,0,0,1,322.02899169921875,391.24200439453125)"><path fill="rgb(238,194,182)" fill-opacity="1" d=" M209.77999877929688,-22.086000442504883 C209.77999877929688,-22.086000442504883 251.92300415039062,69.59400177001953 125.99099731445312,168.0679931640625 C125.99099731445312,168.0679931640625 47.62099838256836,224.30799865722656 -33.24300003051758,177.63299560546875 C-33.24300003051758,177.63299560546875 -49.694000244140625,169.86399841308594 -71.13200378417969,135.2969970703125 C-71.13200378417969,135.2969970703125 -113,69.58799743652344 -122.5199966430664,56.970001220703125 C-122.5199966430664,56.970001220703125 -154.71299743652344,16.52899932861328 -160.20799255371094,8.67300033569336 C-160.20799255371094,8.67300033569336 -251.9239959716797,-158.8419952392578 25.538999557495117,-224.3070068359375 C25.538999557495117,-224.3070068359375 79.1050033569336,-201.89300537109375 132.79299926757812,-132.06399536132812 C132.79299926757812,-132.06399536132812 181.73199462890625,-71.99500274658203 181.73199462890625,-71.99500274658203 C181.73199462890625,-71.99500274658203 205.21099853515625,-37.70800018310547 209.77999877929688,-22.086000442504883z"></path></g><g opacity="1" transform="matrix(1,0,0,1,472.4949951171875,414.7070007324219)"><path fill="rgb(212,144,132)" fill-opacity="1" d=" M16.589000701904297,-86.56099700927734 C16.589000701904297,-86.56099700927734 97.63200378417969,23.33099937438965 -1.437999963760376,118.84400177001953 C-1.437999963760376,118.84400177001953 -37.900001525878906,153.31300354003906 -88.08899688720703,169.16299438476562 C-88.08899688720703,169.16299438476562 -29.349000930786133,165.57400512695312 20.39900016784668,103.55899810791016 C40.590999603271484,78.38700103759766 73.6729965209961,32.87699890136719 65.9000015258789,-22.658000946044922 C65.9000015258789,-22.658000946044922 60.93000030517578,-65.26699829101562 28.652000427246094,-99.81800079345703 C28.652000427246094,-99.81800079345703 -29.486000061035156,-161.7209930419922 -46.38800048828125,-169.16299438476562 C-46.38800048828125,-169.16299438476562 -63.277000427246094,-166.29600524902344 -97.63200378417969,-167.03700256347656 C-97.63200378417969,-167.03700256347656 -22.18400001525879,-146.8679962158203 16.589000701904297,-86.56099700927734z"></path></g><g opacity="1" transform="matrix(1,0,0,1,351.9169921875,486.71600341796875)"><path fill="rgb(234,172,163)" fill-opacity="1" d=" M24.590999603271484,-19.007999420166016 C24.590999603271484,-19.007999420166016 12.081999778747559,-16.9689998626709 0.0860000029206276,-7.538000106811523 C0.0860000029206276,-7.538000106811523 -18.732999801635742,6.1579999923706055 -24.591999053955078,6.635000228881836 C-24.591999053955078,6.635000228881836 -11.284000396728516,19.009000778198242 2.1989998817443848,13.187000274658203 C2.1989998817443848,13.187000274658203 19.24799919128418,4.3520002365112305 21.91699981689453,-7.326000213623047 C21.91699981689453,-7.326000213623047 24.590999603271484,-19.007999420166016 24.590999603271484,-19.007999420166016z"></path></g><g opacity="1" transform="matrix(1,0,0,1,364.8190002441406,485.0119934082031)"><path fill="rgb(123,71,69)" fill-opacity="1" d=" M-3.7019999027252197,7.927999973297119 C-3.7019999027252197,7.927999973297119 -4.2729997634887695,0.8360000252723694 -1.4479999542236328,-3.9809999465942383 C-1.4479999542236328,-3.9809999465942383 1.9859999418258667,-7.927999973297119 4.2729997634887695,-2.819999933242798 C4.2729997634887695,-2.819999933242798 1.1169999837875366,5.585000038146973 -3.7019999027252197,7.927999973297119z"></path></g><g opacity="1" transform="matrix(1,0,0,1,343.3489990234375,498.1780090332031)"><path fill="rgb(123,71,69)" fill-opacity="1" d=" M4.88700008392334,1.190999984741211 C4.88700008392334,1.190999984741211 -1.309000015258789,-2.736999988555908 -4.314000129699707,-0.6330000162124634 C-4.314000129699707,-0.6330000162124634 -4.88700008392334,1.4930000305175781 -2.369999885559082,2.1440000534057617 C-2.369999885559082,2.1440000534057617 2.180000066757202,2.736999988555908 4.88700008392334,1.190999984741211z"></path></g><g opacity="1" transform="matrix(1,0,0,1,396.2170104980469,506.6390075683594)"><path fill="rgb(18,43,70)" fill-opacity="1" d=" M36.638999938964844,-50.88800048828125 C36.638999938964844,-50.88800048828125 7.572000026702881,12.23799991607666 -56.73899841308594,9.746999740600586 C-56.73899841308594,9.746999740600586 -11.972000122070312,50.888999938964844 20.847000122070312,31.33799934387207 C56.737998962402344,9.940999984741211 36.638999938964844,-50.88800048828125 36.638999938964844,-50.88800048828125z"></path></g><g opacity="1" transform="matrix(1,0,0,1,417.1579895019531,521.1309814453125)"><path fill="rgb(255,94,108)" fill-opacity="1" d=" M21.045000076293945,-22.25200080871582 C19.868000030517578,-7.190999984741211 14.550999641418457,8.111000061035156 -0.09300000220537186,16.84600067138672 C-6.75,20.80299949645996 -13.887999534606934,22.25200080871582 -21.045000076293945,22.069000244140625 C-18.1299991607666,-1.531000018119812 8.779999732971191,-16.56999969482422 21.045000076293945,-22.25200080871582z"></path></g><g opacity="1" transform="matrix(1,0,0,1,395.5570068359375,490.9519958496094)"><path fill="rgb(255,255,255)" fill-opacity="1" d=" M1.4859999418258667,24.67099952697754 C-16.309999465942383,35.20199966430664 -31.093000411987305,30.003999710083008 -41.354000091552734,24.799999237060547 C12.670999526977539,18.200000762939453 37.29999923706055,-35.20199966430664 37.29999923706055,-35.20199966430664 C37.29999923706055,-35.20199966430664 39.69200134277344,-27.95800018310547 41.354000091552734,-17.583999633789062 C38.78200149536133,-10.418000221252441 30.11400032043457,7.715000152587891 1.4859999418258667,24.67099952697754z"></path></g><g opacity="1" transform="matrix(1,0,0,1,407.7300109863281,488.697998046875)"><path fill="rgb(92,9,11)" fill-opacity="1" d=" M-10.687000274658203,26.924999237060547 C-17.298999786376953,30.833999633789062 -23.475000381469727,32.56999969482422 -29.18000030517578,32.948001861572266 C-4.6620001792907715,25.422000885009766 19.679000854492188,2.6040000915527344 19.554000854492188,-6.361999988555908 C19.479999542236328,-11.6850004196167 12.277999877929688,-8.704999923706055 5.085999965667725,-4.382999897003174 C18.652999877929688,-18.937000274658203 25.12700080871582,-32.948001861572266 25.12700080871582,-32.948001861572266 C25.12700080871582,-32.948001861572266 27.518999099731445,-25.702999114990234 29.180999755859375,-15.329000473022461 C26.608999252319336,-8.163000106811523 17.94099998474121,9.968999862670898 -10.687000274658203,26.924999237060547z"></path></g><g opacity="1" transform="matrix(1,0,0,1,432.93798828125,455.60699462890625)"><path fill="rgb(197,132,119)" fill-opacity="1" d=" M-11.156000137329102,-0.20900000631809235 C-11.595999717712402,-0.8889999985694885 -9.015000343322754,-3.184999942779541 -5.593999862670898,-4.089000225067139 C-2.2300000190734863,-5.057000160217285 1.3650000095367432,-4.589000225067139 1.3650000095367432,-4.589000225067139 C1.3650000095367432,-4.589000225067139 4.830999851226807,-3.5239999294281006 7.482999801635742,-1.2350000143051147 C10.204999923706055,1.0190000534057617 11.595999717712402,4.184000015258789 10.913999557495117,4.604000091552734 C10.246000289916992,5.057000160217285 7.915999889373779,3.203000068664551 5.315000057220459,2.2829999923706055 C2.7339999675750732,1.3049999475479126 0.11999999731779099,1.1160000562667847 0.11999999731779099,1.1160000562667847 C0.11999999731779099,1.1160000562667847 -2.3329999446868896,0.19900000095367432 -5.0960001945495605,0.006000000052154064 C-7.8420000076293945,-0.25099998712539673 -10.744999885559082,0.47099998593330383 -11.156000137329102,-0.20900000631809235z"></path></g><g opacity="1" transform="matrix(1,0,0,1,385.62298583984375,486.47198486328125)"><path fill="rgb(197,132,119)" fill-opacity="1" d=" M-48.33100128173828,28.642000198364258 C-48.4109992980957,28.981000900268555 -44.762001037597656,30.292999267578125 -38.98699951171875,30.73900032043457 C-33.22800064086914,31.263999938964844 -25.413999557495117,30.70599937438965 -17.908000946044922,28.722000122070312 C-10.37600040435791,26.81399917602539 -3.240000009536743,23.583999633789062 1.8329999446868896,20.76300048828125 C6.915999889373779,17.94499969482422 10.09000015258789,15.722000122070312 10.09000015258789,15.722000122070312 C10.09000015258789,15.722000122070312 13.241000175476074,13.473999977111816 17.604999542236328,9.713000297546387 C21.990999221801758,5.964000225067139 27.513999938964844,0.6759999990463257 32.67599868774414,-4.940999984741211 C37.88399887084961,-10.543000221252441 42.529998779296875,-16.792999267578125 45.08300018310547,-22.003999710083008 C47.71500015258789,-27.187999725341797 48.4109992980957,-31.020000457763672 48.07400131225586,-31.115999221801758 C47.65399932861328,-31.263999938964844 46.22800064086914,-27.764999389648438 43.119998931884766,-23.150999069213867 C40.07400131225586,-18.50200080871582 35.167999267578125,-12.925000190734863 29.732999801635742,-7.833000183105469 C24.304000854492188,-2.700000047683716 18.625999450683594,2.1619999408721924 14.220000267028809,5.547999858856201 C9.814000129699707,8.944000244140625 6.729000091552734,10.951000213623047 6.729000091552734,10.951000213623047 C6.729000091552734,10.951000213623047 3.7950000762939453,13.199000358581543 -0.8830000162124634,16.1200008392334 C-5.541999816894531,19.04400062561035 -12.079999923706055,22.454999923706055 -19.06800079345703,24.770999908447266 C-26.031999588012695,27.141000747680664 -33.37799835205078,28.288000106811523 -38.935001373291016,28.47100067138672 C-44.49300003051758,28.731000900268555 -48.24100112915039,28.18899917602539 -48.33100128173828,28.642000198364258z"></path></g><g opacity="1" transform="matrix(1,0,0,1,334.4570007324219,517.8740234375)"><path fill="rgb(197,132,119)" fill-opacity="1" d=" M-5.607999801635742,8.928000450134277 C-5.508999824523926,9.736000061035156 -2.122999906539917,9.782999992370605 0.765999972820282,7.823999881744385 C2.190000057220459,6.9070000648498535 3.4119999408721924,5.625 4.171999931335449,4.526000022888184 C4.938000202178955,3.424999952316284 5.296999931335449,2.578000068664551 5.296999931335449,2.578000068664551 C5.296999931335449,2.578000068664551 5.546999931335449,1.684000015258789 5.645999908447266,0.3569999933242798 C5.745999813079834,-0.9729999899864197 5.589000225067139,-2.740999937057495 5.059999942779541,-4.349999904632568 C4.046999931335449,-7.688000202178955 1.3849999904632568,-9.782999992370605 0.8050000071525574,-9.21500015258789 C0.21199999749660492,-8.70199966430664 1.2280000448226929,-6.13100004196167 0.9869999885559082,-3.693000078201294 C0.8849999904632568,-1.2239999771118164 -0.20200000703334808,0.6389999985694885 -0.20200000703334808,0.6389999985694885 C-0.20200000703334808,0.6389999985694885 -0.5230000019073486,2.765000104904175 -1.9950000047683716,4.75600004196167 C-3.3410000801086426,6.798999786376953 -5.745999813079834,8.157999992370605 -5.607999801635742,8.928000450134277z"></path></g><g opacity="1" transform="matrix(1,0,0,1,408.93499755859375,546.47998046875)"><path fill="rgb(197,132,119)" fill-opacity="1" d=" M-12.048999786376953,5.739999771118164 C-12.192999839782715,6.521999835968018 -8.470000267028809,7.739999771118164 -4.478000164031982,7.385000228881836 C-0.5180000066757202,7.111000061035156 3.178999900817871,5.376999855041504 3.178999900817871,5.376999855041504 C3.178999900817871,5.376999855041504 6.593999862670898,3.119999885559082 8.892999649047852,-0.11900000274181366 C11.288000106811523,-3.3320000171661377 12.192999839782715,-7.1479997634887695 11.446000099182129,-7.423999786376953 C10.699000358581543,-7.741000175476074 8.585000038146973,-4.922999858856201 5.914000034332275,-2.9670000076293945 C3.2720000743865967,-0.9399999976158142 0.328000009059906,0.28600001335144043 0.328000009059906,0.28600001335144043 C0.328000009059906,0.28600001335144043 -2.240000009536743,2.1540000438690186 -5.349999904632568,3.3469998836517334 C-8.418999671936035,4.60699987411499 -11.927000045776367,4.945000171661377 -12.048999786376953,5.739999771118164z"></path></g><g opacity="1" transform="matrix(1,0,0,1,417.1579895019531,521.0469970703125)"><path fill="rgb(255,94,108)" fill-opacity="1" d=" M-0.09300000220537186,16.929000854492188 C-6.75,20.88599967956543 -13.887999534606934,22.334999084472656 -21.045000076293945,22.152999877929688 C-20.58300018310547,18.40999984741211 -19.464000701904297,14.902999877929688 -17.95400047302246,11.595999717712402 C-15.131999969482422,16.099000930786133 -8.517000198364258,17.983999252319336 2.434000015258789,6.40500020980835 C13.489999771118164,-5.296000003814697 12.119999885559082,-12.404999732971191 9.340999603271484,-15.942000389099121 C13.769000053405762,-18.618999481201172 17.888999938964844,-20.707000732421875 21.045000076293945,-22.16900062561035 C19.867000579833984,-7.107999801635742 14.550999641418457,8.194999694824219 -0.09300000220537186,16.929000854492188z"></path></g><g opacity="1" transform="matrix(1,0,0,1,326.1570129394531,453.20599365234375)"><path fill="rgb(212,144,132)" fill-opacity="1" d=" M-9.121000289916992,-26.030000686645508 C-9.121000289916992,-26.030000686645508 6.4019999504089355,-13.850000381469727 0.6470000147819519,17.975000381469727 C0.6470000147819519,17.975000381469727 -0.5429999828338623,26.02899932861328 9.121000289916992,15.454000473022461 C8.54699993133545,12.057999610900879 7.4730000495910645,-13.670999526977539 -9.121000289916992,-26.030000686645508z"></path></g><g opacity="1" transform="matrix(1,0,0,1,268.4360046386719,332.5260009765625)"><path fill="rgb(212,144,132)" fill-opacity="1" d=" M158.39999389648438,-61.9739990234375 C158.39999389648438,-61.9739990234375 112,-80.68499755859375 35.000999450683594,-29.542999267578125 C35.000999450683594,-29.542999267578125 -29.761999130249023,19.57200050354004 -97.71900177001953,10.406999588012695 C-97.71900177001953,10.406999588012695 -113.08799743652344,34.847999572753906 -91.29299926757812,77.4990005493164 C-82.78299713134766,94.14399719238281 -56.82600021362305,131.65699768066406 -56.82600021362305,131.65699768066406 C-56.82600021362305,131.65699768066406 -79.26499938964844,111.64199829101562 -79.26499938964844,111.64199829101562 C-79.26499938964844,111.64199829101562 -158.39999389648438,27.64299964904785 -100.2959976196289,-14.168000221252441 C-42.202999114990234,-55.97200012207031 -100.2959976196289,-14.168000221252441 -100.2959976196289,-14.168000221252441 C-100.2959976196289,-14.168000221252441 110.60900115966797,-131.65699768066406 158.39999389648438,-61.9739990234375z"></path></g><g opacity="1" transform="matrix(1,0,0,1,358.197998046875,322.0830078125)"><path fill="rgb(34,40,45)" fill-opacity="1" d=" M-33.40599822998047,17.885000228881836 C-33.40599822998047,17.885000228881836 12.413000106811523,-11.086999893188477 42.41600036621094,-12.477999687194824 C42.41600036621094,-12.477999687194824 55.10499954223633,-22.384000778198242 24.1200008392334,-22.384000778198242 C24.1200008392334,-22.384000778198242 -28.48699951171875,-23.774999618530273 -53.444000244140625,4.017000198364258 C-53.444000244140625,4.017000198364258 -55.10499954223633,23.774999618530273 -33.40599822998047,17.885000228881836z"></path></g><g opacity="1" transform="matrix(1,0,0,1,232.2259979248047,412.4809875488281)"><path fill="rgb(34,40,45)" fill-opacity="1" d=" M27.589000701904297,-22.908000946044922 C27.589000701904297,-22.908000946044922 -15.319000244140625,10.225000381469727 -26.89299964904785,37.94900131225586 C-26.89299964904785,37.94900131225586 -40.553001403808594,46.47600173950195 -29.94700050354004,17.365999221801758 C-29.94700050354004,17.365999221801758 -13.23799991607666,-32.547000885009766 21.424999237060547,-46.47600173950195 C21.424999237060547,-46.47600173950195 40.553001403808594,-41.27799987792969 27.589000701904297,-22.908000946044922z"></path></g><g opacity="1" transform="matrix(1,0,0,1,402.5360107421875,361.5979919433594)"><path fill="rgb(24,24,24)" fill-opacity="1" d=" M52.7859992980957,-4.828000068664551 C52.7859992980957,-4.828000068664551 21.902999877929688,-46.73400115966797 -16.639999389648438,-17.68600082397461 C-16.639999389648438,-17.68600082397461 -26.486000061035156,-9.946999549865723 -32.132999420166016,4.353000164031982 C-36.3390007019043,15.003000259399414 -38.21500015258789,29.292999267578125 -31.957000732421875,46.73400115966797 C-31.957000732421875,46.73400115966797 -52.7869987487793,28.784000396728516 -41.3489990234375,-5.039000034332275 C-41.3489990234375,-5.039000034332275 -26.871999740600586,-39.43600082397461 8.71500015258789,-36.79999923706055 C8.71500015258789,-36.79999923706055 42.54100036621094,-35.696998596191406 52.7859992980957,-4.828000068664551z"></path></g><g opacity="1" transform="matrix(1,0,0,1,410.68798828125,378.6759948730469)"><path fill="rgb(244,244,244)" fill-opacity="1" d=" M-41.21799850463867,29.06599998474121 C-41.21799850463867,29.06599998474121 -29.986000061035156,54.94300079345703 -3.6429998874664307,43.393001556396484 C-3.6429998874664307,43.393001556396484 20.344999313354492,35.369998931884766 35.268001556396484,20.28700065612793 C35.268001556396484,20.28700065612793 53.974998474121094,3.746999979019165 43.4900016784668,-24.031999588012695 C43.4900016784668,-24.031999588012695 26.672000885009766,-54.94300079345703 -8.815999984741211,-46.62900161743164 C-8.815999984741211,-46.62900161743164 -33.21799850463867,-39.18600082397461 -42.465999603271484,-18.950000762939453 C-42.465999603271484,-18.950000762939453 -53.9739990234375,4.946000099182129 -41.21799850463867,29.06599998474121z"></path></g><g opacity="1" transform="matrix(1,0,0,1,412.34698486328125,378.2439880371094)"><path fill="rgb(17,128,126)" fill-opacity="1" d=" M-26.106000900268555,18.274999618530273 C-16.014999389648438,32.69499969482422 3.8499999046325684,36.207000732421875 18.273000717163086,26.108999252319336 C32.69900131225586,16.01099967956543 36.20000076293945,-3.8529999256134033 26.104999542236328,-18.277000427246094 C16.013999938964844,-32.689998626708984 -3.8529999256134033,-36.207000732421875 -18.27899932861328,-26.110000610351562 C-32.70199966430664,-16.01300048828125 -36.20000076293945,3.8580000400543213 -26.106000900268555,18.274999618530273z"></path></g><g opacity="1" transform="matrix(1,0,0,1,412.34698486328125,378.2439880371094)"><path stroke-linecap="butt" stroke-linejoin="miter" fill-opacity="0" stroke-miterlimit="10" stroke="rgb(20,70,64)" stroke-opacity="1" stroke-width="1" d=" M-26.106000900268555,18.274999618530273 C-16.014999389648438,32.69499969482422 3.8499999046325684,36.207000732421875 18.273000717163086,26.108999252319336 C32.69900131225586,16.01099967956543 36.20000076293945,-3.8529999256134033 26.104999542236328,-18.277000427246094 C16.013999938964844,-32.689998626708984 -3.8529999256134033,-36.207000732421875 -18.27899932861328,-26.110000610351562 C-32.70199966430664,-16.01300048828125 -36.20000076293945,3.8580000400543213 -26.106000900268555,18.274999618530273z"></path></g><g opacity="1" transform="matrix(1,0,0,1,414.10198974609375,379.77099609375)"><path fill="rgb(26,175,175)" fill-opacity="1" d=" M-24.26099967956543,16.985000610351562 C-14.885000228881836,30.381999969482422 3.578000068664551,33.63999938964844 16.979000091552734,24.256999969482422 C30.378999710083008,14.880999565124512 33.63999938964844,-3.5820000171661377 24.263999938964844,-16.98200035095215 C14.885000228881836,-30.382999420166016 -3.5859999656677246,-33.63999938964844 -16.986000061035156,-24.264999389648438 C-30.381999969482422,-14.885000228881836 -33.63999938964844,3.5820000171661377 -24.26099967956543,16.985000610351562z"></path></g><g opacity="1" transform="matrix(1,0,0,1,411.4129943847656,376.66400146484375)"><path fill="rgb(0,0,0)" fill-opacity="1" d=" M-17.44499969482422,12.201000213623047 C-10.697999954223633,21.84000015258789 2.571000099182129,24.194000244140625 12.213000297546387,17.444000244140625 C21.844999313354492,10.699999809265137 24.18600082397461,-2.578000068664551 17.43600082397461,-12.21399974822998 C10.699000358581543,-21.843000411987305 -2.5789999961853027,-24.194000244140625 -12.208999633789062,-17.44700050354004 C-21.85099983215332,-10.701000213623047 -24.184999465942383,2.575000047683716 -17.44499969482422,12.201000213623047z"></path></g><g opacity="1" transform="matrix(1,0,0,1,392.02099609375,378.0950012207031)"><path fill="rgb(251,251,251)" fill-opacity="1" d=" M-6.178999900817871,4.329999923706055 C-3.7869999408721924,7.744999885559082 0.9100000262260437,8.567000389099121 4.326000213623047,6.177999973297119 C7.735000133514404,3.7920000553131104 8.571000099182129,-0.9089999794960022 6.178999900817871,-4.316999912261963 C3.7869999408721924,-7.73799991607666 -0.9169999957084656,-8.567000389099121 -4.322999954223633,-6.181000232696533 C-7.741000175476074,-3.7860000133514404 -8.571000099182129,0.9150000214576721 -6.178999900817871,4.329999923706055z"></path></g><g opacity="1" transform="matrix(1,0,0,1,402.9679870605469,384.8900146484375)"><path fill="rgb(251,251,251)" fill-opacity="1" d=" M-2.0199999809265137,1.4190000295639038 C-1.2410000562667847,2.5309998989105225 0.3009999990463257,2.803999900817871 1.4179999828338623,2.0220000743865967 C2.5329999923706055,1.2430000305175781 2.802000045776367,-0.29600000381469727 2.0260000228881836,-1.409999966621399 C1.2410000562667847,-2.5250000953674316 -0.2980000078678131,-2.803999900817871 -1.4110000133514404,-2.0250000953674316 C-2.5299999713897705,-1.2400000095367432 -2.802999973297119,0.30300000309944153 -2.0199999809265137,1.4190000295639038z"></path></g><g opacity="1" transform="matrix(1,0,0,1,268.90399169921875,456.21099853515625)"><path fill="rgb(24,24,24)" fill-opacity="1" d=" M45.007999420166016,-0.46399998664855957 C45.007999420166016,-0.46399998664855957 19.259000778198242,-28.39900016784668 -11.277000427246094,-24.066999435424805 C-11.277000427246094,-24.066999435424805 -32.20899963378906,-15.607999801635742 -31.267000198364258,-0.25699999928474426 C-31.267000198364258,-0.25699999928474426 -32.242000579833984,13.850000381469727 -16.510000228881836,34.85300064086914 C-16.510000228881836,34.85300064086914 -45.00899887084961,15.039999961853027 -39.04899978637695,-12.11299991607666 C-37.11800003051758,-20.934999465942383 -23.898000717163086,-34.854000091552734 -6.557000160217285,-33.558998107910156 C-6.557000160217285,-33.558998107910156 28.45199966430664,-32.24800109863281 45.007999420166016,-0.46399998664855957z"></path></g><g opacity="1" transform="matrix(1,0,0,1,269.62200927734375,465.4179992675781)"><path fill="rgb(244,244,244)" fill-opacity="1" d=" M38.0890007019043,22.045000076293945 C38.0890007019043,22.045000076293945 52.40299987792969,6.340000152587891 44.29100036621094,-9.670999526977539 C44.29100036621094,-9.670999526977539 7.9730000495910645,-48.28099822998047 -22.288000106811523,-31.7450008392334 C-22.288000106811523,-31.7450008392334 -52.40299987792969,-14.279000282287598 -18.783000946044922,24.155000686645508 C-18.783000946044922,24.155000686645508 9.458000183105469,48.28099822998047 38.0890007019043,22.045000076293945z"></path></g><g opacity="1" transform="matrix(1,0,0,1,286.7749938964844,463.052001953125)"><path fill="rgb(17,128,126)" fill-opacity="1" d=" M-21.65999984741211,14.461000442504883 C-12.678999900817871,27.288000106811523 4.988999843597412,30.405000686645508 17.812999725341797,21.42300033569336 C30.638999938964844,12.444999694824219 30.423999786376953,-1.6890000104904175 22.283000946044922,-12.767999649047852 C12.918999671936035,-25.500999450683594 -4.783999919891357,-30.40399932861328 -14.692000389099121,-25.013999938964844 C-28.445999145507812,-17.535999298095703 -30.638999938964844,1.6349999904632568 -21.65999984741211,14.461000442504883z"></path></g><g opacity="1" transform="matrix(1,0,0,1,286.7749938964844,463.052001953125)"><path stroke-linecap="butt" stroke-linejoin="miter" fill-opacity="0" stroke-miterlimit="10" stroke="rgb(20,70,64)" stroke-opacity="1" stroke-width="1" d=" M-21.65999984741211,14.461000442504883 C-12.678999900817871,27.288000106811523 4.988999843597412,30.405000686645508 17.812999725341797,21.42300033569336 C30.638999938964844,12.444999694824219 30.423999786376953,-1.6890000104904175 22.283000946044922,-12.767999649047852 C12.918999671936035,-25.500999450683594 -4.783999919891357,-30.40399932861328 -14.692000389099121,-25.013999938964844 C-28.445999145507812,-17.535999298095703 -30.638999938964844,1.6349999904632568 -21.65999984741211,14.461000442504883z"></path></g><g opacity="1" transform="matrix(1,0,0,1,289.54400634765625,464.6260070800781)"><path fill="rgb(26,175,175)" fill-opacity="1" d=" M-21.50200080871582,14.364999771118164 C-13.574999809265137,25.69099998474121 2.0350000858306885,28.445999145507812 13.357000350952148,20.516000747680664 C24.68600082397461,12.59000015258789 29.42799949645996,-4.710000038146973 19.513999938964844,-14.342000007629395 C4.985000133514404,-28.44499969482422 -4.019999980926514,-28.42300033569336 -15.347999572753906,-20.493000030517578 C-26.673999786376953,-12.565999984741211 -29.42799949645996,3.0360000133514404 -21.50200080871582,14.364999771118164z"></path></g><g opacity="1" transform="matrix(1,0,0,1,288.8370056152344,460.1319885253906)"><path fill="rgb(0,0,0)" fill-opacity="1" d=" M-15.420999526977539,10.79800033569336 C-9.460000038146973,19.31800079345703 2.2829999923706055,21.389999389648438 10.795999526977539,15.432999610900879 C19.32200050354004,9.461999893188477 21.385000228881836,-2.2739999294281006 15.425999641418457,-10.791000366210938 C9.46500015258789,-19.309999465942383 -2.2709999084472656,-21.388999938964844 -10.793999671936035,-15.423999786376953 C-11.932000160217285,-14.626999855041504 -12.954999923706055,-13.72700023651123 -13.859000205993652,-12.744999885559082 C-19.72100067138672,-6.377999782562256 -20.58799934387207,3.4189999103546143 -15.420999526977539,10.79800033569336z"></path></g><g opacity="1" transform="matrix(1,0,0,1,268.56500244140625,461.4150085449219)"><path fill="rgb(255,255,255)" fill-opacity="1" d=" M-4.675000190734863,3.2750000953674316 C-2.86899995803833,5.85699987411499 0.6869999766349792,6.48799991607666 3.2750000953674316,4.672999858856201 C5.861999988555908,2.868000030517578 6.486999988555908,-0.6909999847412109 4.684999942779541,-3.2720000743865967 C2.871000051498413,-5.855999946594238 -0.6899999976158142,-6.48799991607666 -3.2750000953674316,-4.676000118255615 C-5.861999988555908,-2.868000030517578 -6.486000061035156,0.6909999847412109 -4.675000190734863,3.2750000953674316z"></path></g><g opacity="1" transform="matrix(1,0,0,1,279.1969909667969,465.718994140625)"><path fill="rgb(255,255,255)" fill-opacity="1" d=" M-2.3420000076293945,1.6390000581741333 C-1.437999963760376,2.927999973297119 0.3440000116825104,3.242000102996826 1.628999948501587,2.3410000801086426 C2.924999952316284,1.4329999685287476 3.243000030517578,-0.34299999475479126 2.3389999866485596,-1.6380000114440918 C1.434000015258789,-2.927000045776367 -0.34599998593330383,-3.242000102996826 -1.6410000324249268,-2.3380000591278076 C-2.930000066757202,-1.4329999685287476 -3.243000030517578,0.34700000286102295 -2.3420000076293945,1.6390000581741333z"></path></g><g opacity="1" transform="matrix(1,0,0,1,691.0919799804688,868.885009765625)"><path fill="rgb(142,143,145)" fill-opacity="1" d=" M-18.983999252319336,7.979000091552734 C-18.983999252319336,7.979000091552734 -11.961000442504883,14.944000244140625 -10.769000053405762,21.260000228881836 C-10.769000053405762,21.260000228881836 7.0920000076293945,15.968999862670898 18.982999801635742,-6.656000137329102 C18.982999801635742,-6.656000137329102 13.711000442504883,-17.944000244140625 5.354000091552734,-21.259000778198242 C5.354000091552734,-21.259000778198242 -18.983999252319336,7.979000091552734 -18.983999252319336,7.979000091552734z"></path></g><g opacity="1" transform="matrix(1,0,0,1,701.6900024414062,778.8270263671875)"><path fill="rgb(142,143,145)" fill-opacity="1" d=" M-17.618000030517578,-16.27899932861328 C-17.618000030517578,-16.27899932861328 4.4079999923706055,-22.117000579833984 4.4079999923706055,-22.117000579833984 C4.4079999923706055,-22.117000579833984 17.618000030517578,11.574999809265137 12.03600025177002,18.281999588012695 C12.03600025177002,18.281999588012695 -9.937999725341797,22.117000579833984 -9.937999725341797,22.117000579833984 C-9.937999725341797,22.117000579833984 -17.618000030517578,-16.27899932861328 -17.618000030517578,-16.27899932861328z"></path></g><g opacity="1" transform="matrix(1,0,0,1,708.3800048828125,913.6179809570312)"><path fill="rgb(112,68,57)" fill-opacity="1" d=" M13.527000427246094,-52.7599983215332 C13.527000427246094,-52.7599983215332 28.201000213623047,-38.9370002746582 32.65700149536133,-33.104000091552734 C32.65700149536133,-33.104000091552734 33.625999450683594,-32.31800079345703 33.56100082397461,-30.15999984741211 C33.362998962402344,-23.50200080871582 27.94700050354004,4.841000080108643 10.833000183105469,28.1299991607666 C3.316999912261963,38.347999572753906 -14.20300006866455,52.7599983215332 -27.49799919128418,52.59299850463867 C-27.49799919128418,52.59299850463867 -33.73500061035156,46.40399932861328 -34.04499816894531,41.16400146484375 C-34.04499816894531,41.16400146484375 34.04499816894531,22.642000198364258 13.527000427246094,-52.7599983215332z"></path></g><g opacity="1" transform="matrix(1,0,0,1,700.301025390625,906.43701171875)"><path fill="rgb(134,82,69)" fill-opacity="1" d=" M-22.05500030517578,-20.131000518798828 C-22.05500030517578,-20.131000518798828 -23.725000381469727,-18.589000701904297 -22.84000015258789,-15.715999603271484 C-20.91900062561035,-9.434000015258789 -20.27899932861328,9.241000175476074 -27.091999053955078,33.71900177001953 C-27.091999053955078,33.71900177001953 -31.263999938964844,48.7869987487793 -22.878000259399414,55.59199905395508 C-22.878000259399414,55.59199905395508 -1.9259999990463257,52.590999603271484 11.76099967956543,35.96200180053711 C18.290000915527344,28.020999908447266 23.71299934387207,24.7450008392334 28.990999221801758,-3.803999900817871 C28.990999221801758,-3.803999900817871 31.263999938964844,-35.983001708984375 31.263999938964844,-35.983001708984375 C31.263999938964844,-35.983001708984375 18.541000366210938,-50.446998596191406 9.802000045776367,-53.4739990234375 C9.802000045776367,-53.4739990234375 2.2290000915527344,-55.59299850463867 3.7769999504089355,-44.430999755859375 C3.7769999504089355,-44.430999755859375 0.9779999852180481,-36.590999603271484 -10.281000137329102,-26.231000900268555 C-12.793999671936035,-23.91900062561035 -17.70599937438965,-20.15999984741211 -22.05500030517578,-20.131000518798828z"></path></g><g opacity="1" transform="matrix(1,0,0,1,688.4860229492188,908.8629760742188)"><path fill="rgb(112,68,57)" fill-opacity="1" d=" M-9.845000267028809,1.8680000305175781 C-9.845000267028809,1.8680000305175781 4.185999870300293,-3.4739999771118164 10.0600004196167,-4.622000217437744 C10.0600004196167,-4.622000217437744 -5.36299991607666,3.3299999237060547 -10.0600004196167,4.622000217437744 C-10.0600004196167,4.622000217437744 -9.845000267028809,1.8680000305175781 -9.845000267028809,1.8680000305175781z"></path></g><g opacity="1" transform="matrix(1,0,0,1,687.6699829101562,916.1079711914062)"><path fill="rgb(112,68,57)" fill-opacity="1" d=" M-9.722000122070312,1.4839999675750732 C-9.722000122070312,1.4839999675750732 4.156000137329102,-3.5209999084472656 10.20300006866455,-4.710000038146973 C10.20300006866455,-4.710000038146973 -5.938000202178955,3.010999917984009 -10.20300006866455,4.710999965667725 C-10.20300006866455,4.710999965667725 -9.722000122070312,1.4839999675750732 -9.722000122070312,1.4839999675750732z"></path></g><g opacity="1" transform="matrix(1,0,0,1,686.1279907226562,923.906005859375)"><path fill="rgb(112,68,57)" fill-opacity="1" d=" M-9.498000144958496,1.7599999904632568 C-9.498000144958496,1.7599999904632568 3.440999984741211,-3.0290000438690186 9.965999603271484,-4.0970001220703125 C9.965999603271484,-4.0970001220703125 -5.264999866485596,2.812999963760376 -9.965999603271484,4.0980000495910645 C-9.965999603271484,4.0980000495910645 -9.498000144958496,1.7599999904632568 -9.498000144958496,1.7599999904632568z"></path></g><g opacity="1" transform="matrix(1,0,0,1,740.926025390625,768.6589965820312)"><path fill="rgb(112,68,57)" fill-opacity="1" d=" M-49.77799987792969,-16.608999252319336 C-49.77799987792969,-16.608999252319336 -35.678001403808594,-29.371000289916992 -29.82200050354004,-33.06399917602539 C-29.82200050354004,-33.06399917602539 -27.510000228881836,-34.67100143432617 -23.51099967956543,-33.67399978637695 C-15.423999786376953,-31.656999588012695 3.4010000228881836,-26.8439998626709 23.09600067138672,-14.383000373840332 C33.55799865722656,-7.758999824523926 49.777000427246094,7.684000015258789 48.47600173950195,20.155000686645508 C48.47600173950195,20.155000686645508 44.73699951171875,31.347999572753906 38.70100021362305,34.67100143432617 C38.70100021362305,34.67100143432617 22.76799964904785,-29.399999618530273 -49.77799987792969,-16.608999252319336z"></path></g><g opacity="1" transform="matrix(1,0,0,1,737.218017578125,776.2839965820312)"><path fill="rgb(134,82,69)" fill-opacity="1" d=" M-24.24799919128418,20.409000396728516 C-24.24799919128418,20.409000396728516 -22.790000915527344,25.363000869750977 -16.950000762939453,23.288999557495117 C-11.118000030517578,21.22599983215332 8.385000228881836,20.884000778198242 30.785999298095703,29.37700080871582 C40.73500061035156,32.47200012207031 54.694000244140625,19.090999603271484 49.50600051879883,10.36299991607666 C46.10900115966797,4.651000022888184 39.6879997253418,-9.133999824523926 21.141000747680664,-17.393999099731445 C11.984999656677246,-21.472000122070312 10.994999885559082,-23.139999389648438 -6.2179999351501465,-27.58300018310547 C-6.2179999351501465,-27.58300018310547 -36.22100067138672,-32.47100067138672 -36.22100067138672,-32.47100067138672 C-36.22100067138672,-32.47100067138672 -50.89400100708008,-21.770000457763672 -54.481998443603516,-13.82699966430664 C-54.481998443603516,-13.82699966430664 -54.694000244140625,-7.554999828338623 -44.08599853515625,-8.065999984741211 C-44.08599853515625,-8.065999984741211 -36.29800033569336,-6.729000091552734 -34.3390007019043,0.4059999883174896 C-28.64699935913086,11.973999977111816 -29.56999969482422,11.119999885559082 -24.24799919128418,20.409000396728516z"></path></g><g opacity="1" transform="matrix(1,0,0,1,732.093994140625,788.823974609375)"><path fill="rgb(112,68,57)" fill-opacity="1" d=" M1.003000020980835,9.548999786376953 C1.003000020980835,9.548999786376953 -2.806999921798706,-4.072999954223633 -3.377000093460083,-9.687999725341797 C-3.377000093460083,-9.687999725341797 2.5739998817443848,5.171999931335449 3.375999927520752,9.689000129699707 C3.375999927520752,9.689000129699707 1.003000020980835,9.548999786376953 1.003000020980835,9.548999786376953z"></path></g><g opacity="1" transform="matrix(1,0,0,1,739.0900268554688,789.593994140625)"><path fill="rgb(112,68,57)" fill-opacity="1" d=" M0.7549999952316284,9.246999740600586 C0.7549999952316284,9.246999740600586 -3.115999937057495,-3.7709999084472656 -3.7209999561309814,-9.569999694824219 C-3.7209999561309814,-9.569999694824219 2.492000102996826,5.432000160217285 3.7209999561309814,9.569999694824219 C3.7209999561309814,9.569999694824219 0.7549999952316284,9.246999740600586 0.7549999952316284,9.246999740600586z"></path></g><g opacity="1" transform="matrix(1,0,0,1,745.9409790039062,790.7570190429688)"><path fill="rgb(112,68,57)" fill-opacity="1" d=" M1.0080000162124634,9.109000205993652 C1.0080000162124634,9.109000205993652 -2.687999963760376,-3.2699999809265137 -3.13100004196167,-9.484999656677246 C-3.13100004196167,-9.484999656677246 2.3299999237060547,4.960999965667725 3.13100004196167,9.484999656677246 C3.13100004196167,9.484999656677246 1.0080000162124634,9.109000205993652 1.0080000162124634,9.109000205993652z"></path></g><g opacity="1" transform="matrix(1,0,0,1,625.3359985351562,771.2890014648438)"><path fill="rgb(39,44,54)" fill-opacity="1" d=" M3.4170000553131104,-108.76000213623047 C3.4170000553131104,-108.76000213623047 -87.04100036621094,-45.44300079345703 -87.04100036621094,-45.44300079345703 C-87.04100036621094,-45.44300079345703 -67.20899963378906,-18.077999114990234 -44.57699966430664,1.7170000076293945 C-44.57699966430664,1.7170000076293945 -41.257999420166016,21.606000900268555 -38.33700180053711,24.81999969482422 C-36.43299865722656,26.899999618530273 -28.374000549316406,39.88999938964844 -24.996999740600586,39.3129997253418 C-21.624000549316406,38.729000091552734 -14.414999961853027,39.57600021362305 -13.298999786376953,40.54399871826172 C-13.298999786376953,40.54399871826172 -6.322000026702881,37.367000579833984 0.843999981880188,46.91899871826172 C0.843999981880188,46.91899871826172 42.59400177001953,108.76000213623047 42.59400177001953,108.76000213623047 C42.59400177001953,108.76000213623047 73.91899871826172,87.53900146484375 73.91899871826172,87.53900146484375 C73.91899871826172,87.53900146484375 79.87000274658203,84.55699920654297 79.87000274658203,84.55699920654297 C79.87000274658203,84.55699920654297 87.04000091552734,80.052001953125 77.96499633789062,72.98200225830078 C77.96499633789062,72.98200225830078 49.87300109863281,39.680999755859375 45.5989990234375,34.97100067138672 C45.5989990234375,34.97100067138672 48.0620002746582,32.680999755859375 68.41699981689453,35.09600067138672 C68.41699981689453,35.09600067138672 64.18900299072266,3.321000099182129 63.150001525878906,-14.57800006866455 C63.150001525878906,-14.57800006866455 37.874000549316406,-13.722999572753906 7.136000156402588,-15.480999946594238 C5.150000095367432,-15.593000411987305 -0.9869999885559082,-14.579000473022461 -0.5410000085830688,-21.697999954223633 C-0.5410000085830688,-21.697999954223633 19.003999710083008,-86.25199890136719 3.4170000553131104,-108.76000213623047z"></path></g><g opacity="1" transform="matrix(1,0,0,1,632.6909790039062,779.1690063476562)"><path fill="rgb(49,55,62)" fill-opacity="1" d=" M-61.27299880981445,-36.16899871826172 C-61.27299880981445,-36.16899871826172 -52.75,10.670000076293945 -45.222999572753906,24.26300048828125 C-39.80099868774414,34.042999267578125 -35.558998107910156,36.16899871826172 -3.5190000534057617,33.41899871826172 C-3.5190000534057617,33.41899871826172 56.303001403808594,28.91900062561035 61.27199935913086,28.503000259399414 C61.27199935913086,28.503000259399414 60.59299850463867,23.60099983215332 60.59299850463867,23.60099983215332 C60.59299850463867,23.60099983215332 -5.61299991607666,28.554000854492188 -5.61299991607666,28.554000854492188 C-5.61299991607666,28.554000854492188 -39.03900146484375,33.92499923706055 -42.321998596191406,18.81800079345703 C-42.321998596191406,18.81800079345703 -61.27299880981445,-36.16899871826172 -61.27299880981445,-36.16899871826172z"></path></g><g opacity="1" transform="matrix(1,0,0,1,559.9210205078125,747.56201171875)"><path fill="rgb(49,55,62)" fill-opacity="1" d=" M-15.548999786376953,-23.812999725341797 C-15.548999786376953,-23.812999725341797 20.839000701904297,25.444000244140625 20.839000701904297,25.444000244140625 C20.839000701904297,25.444000244140625 16.05500030517578,21.079999923706055 7.195000171661377,11.604000091552734 C-3.303999900817871,0.3709999918937683 -20.839000701904297,-20.34600067138672 -20.839000701904297,-20.34600067138672 C-20.839000701904297,-20.34600067138672 -13.069999694824219,-25.44499969482422 -13.069999694824219,-25.44499969482422"></path></g><g opacity="1" transform="matrix(1,0,0,1,306.9150085449219,268.25299072265625)"><path fill="rgb(15,15,15)" fill-opacity="1" d=" M198.16700744628906,80.78900146484375 C198.16700744628906,80.78900146484375 140.13800048828125,-27.683000564575195 73.10099792480469,-8.404999732971191 C73.10099792480469,-8.404999732971191 35.64799880981445,-1.9149999618530273 -7.163000106811523,27.54400062561035 C-7.163000106811523,27.54400062561035 -70.10800170898438,74.80000305175781 -142.7519989013672,64.95500183105469 C-142.7519989013672,64.95500183105469 -163.5469970703125,88.56800079345703 -136.16600036621094,138.8699951171875 C-136.16600036621094,138.8699951171875 -96.02400207519531,196.21600341796875 -96.02400207519531,196.21600341796875 C-96.02400207519531,196.21600341796875 -115.46299743652344,198.64999389648438 -138.49899291992188,189.21600341796875 C-138.49899291992188,189.21600341796875 -200.19000244140625,169.31300354003906 -207.22799682617188,77.61499786376953 C-207.22799682617188,77.61499786376953 -198.89300537109375,80.68000030517578 -191.09500122070312,89.47599792480469 C-191.09500122070312,89.47599792480469 -239.48599243164062,3.572000026702881 -209.75,-52.37699890136719 C-209.75,-52.37699890136719 -213.97500610351562,-72.44599914550781 -209.61900329589844,-87.47200012207031 C-209.61900329589844,-87.47200012207031 -195.93299865722656,-90.79399871826172 -187.52699279785156,-91.09200286865234 C-187.52699279785156,-91.09200286865234 -195.406005859375,-102.3479995727539 -178.74600219726562,-113.20500183105469 C-178.74600219726562,-113.20500183105469 -193.95799255371094,-137.1739959716797 -188.27099609375,-153.656005859375 C-188.27099609375,-153.656005859375 -170.63699340820312,-151.30499267578125 -160.3470001220703,-147.23599243164062 C-150.14700317382812,-143.18299865722656 -148.19700622558594,-143.37600708007812 -133.86900329589844,-131.84500122070312 C-133.86900329589844,-131.84500122070312 -154.7949981689453,-159.5240020751953 -158.843994140625,-174.25799560546875 C-158.843994140625,-174.25799560546875 -109.31099700927734,-170.5959930419922 -22.093000411987305,-186.9239959716797 C-22.093000411987305,-186.9239959716797 72.24199676513672,-198.64999389648438 145.02099609375,-150.58399963378906 C145.02099609375,-150.58399963378906 238.08200073242188,-101.52300262451172 239.48599243164062,-1.093999981880188 C239.48599243164062,-1.093999981880188 198.78199768066406,28.52199935913086 206.4969940185547,79.81800079345703 C206.4969940185547,79.81800079345703 200.80599975585938,85.61499786376953 198.16700744628906,80.78900146484375z"></path></g><g opacity="1" transform="matrix(1,0,0,1,306.9150085449219,268.25299072265625)"><path stroke-linecap="butt" stroke-linejoin="miter" fill-opacity="0" stroke-miterlimit="10" stroke="rgb(2,2,2)" stroke-opacity="1" stroke-width="1" d=" M198.16700744628906,80.78900146484375 C198.16700744628906,80.78900146484375 140.13800048828125,-27.683000564575195 73.10099792480469,-8.404999732971191 C73.10099792480469,-8.404999732971191 35.64799880981445,-1.9149999618530273 -7.163000106811523,27.54400062561035 C-7.163000106811523,27.54400062561035 -70.10800170898438,74.80000305175781 -142.7519989013672,64.95500183105469 C-142.7519989013672,64.95500183105469 -163.5469970703125,88.56800079345703 -136.16600036621094,138.8699951171875 C-136.16600036621094,138.8699951171875 -96.02400207519531,196.21600341796875 -96.02400207519531,196.21600341796875 C-96.02400207519531,196.21600341796875 -115.46299743652344,198.64999389648438 -138.49899291992188,189.21600341796875 C-138.49899291992188,189.21600341796875 -200.19000244140625,169.31300354003906 -207.22799682617188,77.61499786376953 C-207.22799682617188,77.61499786376953 -198.89300537109375,80.68000030517578 -191.09500122070312,89.47599792480469 C-191.09500122070312,89.47599792480469 -239.48599243164062,3.572000026702881 -209.75,-52.37699890136719 C-209.75,-52.37699890136719 -213.97500610351562,-72.44599914550781 -209.61900329589844,-87.47200012207031 C-209.61900329589844,-87.47200012207031 -195.93299865722656,-90.79399871826172 -187.52699279785156,-91.09200286865234 C-187.52699279785156,-91.09200286865234 -195.406005859375,-102.3479995727539 -178.74600219726562,-113.20500183105469 C-178.74600219726562,-113.20500183105469 -193.95799255371094,-137.1739959716797 -188.27099609375,-153.656005859375 C-188.27099609375,-153.656005859375 -170.63699340820312,-151.30499267578125 -160.3470001220703,-147.23599243164062 C-150.14700317382812,-143.18299865722656 -148.19700622558594,-143.37600708007812 -133.86900329589844,-131.84500122070312 C-133.86900329589844,-131.84500122070312 -154.7949981689453,-159.5240020751953 -158.843994140625,-174.25799560546875 C-158.843994140625,-174.25799560546875 -109.31099700927734,-170.5959930419922 -22.093000411987305,-186.9239959716797 C-22.093000411987305,-186.9239959716797 72.24199676513672,-198.64999389648438 145.02099609375,-150.58399963378906 C145.02099609375,-150.58399963378906 238.08200073242188,-101.52300262451172 239.48599243164062,-1.093999981880188 C239.48599243164062,-1.093999981880188 198.78199768066406,28.52199935913086 206.4969940185547,79.81800079345703 C206.4969940185547,79.81800079345703 200.80599975585938,85.61499786376953 198.16700744628906,80.78900146484375z"></path></g><g opacity="1" transform="matrix(1,0,0,1,232.60699462890625,139.87399291992188)"><path fill="rgb(37,36,36)" fill-opacity="1" d=" M43.94599914550781,-25.610000610351562 C43.94599914550781,-25.610000610351562 -43.41400146484375,-25.14900016784668 -70.80400085449219,-36.323001861572266 C-70.80400085449219,-36.323001861572266 -41.54800033569336,39.02799987792969 70.80400085449219,36.24800109863281 C70.80400085449219,36.24800109863281 56.46500015258789,3.9670000076293945 -2.9690001010894775,-8.739999771118164 C-2.9690001010894775,-8.739999771118164 33.43199920654297,-7.068999767303467 45.819000244140625,-22.929000854492188"></path></g><g opacity="1" transform="matrix(1,0,0,1,280.84100341796875,173.44400024414062)"><path fill="rgb(37,36,36)" fill-opacity="1" d=" M151.64700317382812,36.099998474121094 C151.64700317382812,36.099998474121094 117.95600128173828,1.3849999904632568 38.55500030517578,15.4399995803833 C38.55500030517578,15.4399995803833 -6.4079999923706055,26.152999877929688 -56.61199951171875,1.4010000228881836 C-56.61199951171875,1.4010000228881836 -107.26599884033203,-15.04800033569336 -138.9320068359375,-42.39099884033203 C-138.9320068359375,-42.39099884033203 -144.40899658203125,-45.74800109863281 -149.81100463867188,-46.75199890136719 C-155.218994140625,-47.76499938964844 -150.42300415039062,-9.590999603271484 -111.47799682617188,21.441999435424805 C-111.47799682617188,21.441999435424805 -76.05999755859375,59.73500061035156 -3.0350000858306885,42.15399932861328 C-3.0350000858306885,42.15399932861328 90.36000061035156,23.878999710083008 135.73199462890625,36.86000061035156 C139.58399963378906,37.95899963378906 145.26600646972656,38.17100143432617 151.64700317382812,36.099998474121094z"></path></g><g opacity="1" transform="matrix(1,0,0,1,269.4649963378906,240.1219940185547)"><path fill="rgb(37,36,36)" fill-opacity="1" d=" M162.49099731445312,-13.442999839782715 C162.49099731445312,-13.442999839782715 111.82099914550781,-25.729999542236328 69.05799865722656,-12.718000411987305 C41.551998138427734,-4.348999977111816 -2.0220000743865967,9.887999534606934 -45.70000076293945,-1.0679999589920044 C-45.70000076293945,-1.0679999589920044 -74.9469985961914,-5.683000087738037 -126.37100219726562,-43.625999450683594 C-126.37100219726562,-43.625999450683594 -143.24400329589844,-57.20600128173828 -162.31700134277344,-53.5989990234375 C-162.31700134277344,-53.5989990234375 -177.94400024414062,-1.965999960899353 -136.0659942626953,34.236000061035156 C-118.76200103759766,49.191001892089844 -103.1969985961914,59.93899917602539 -46.904998779296875,50.887001037597656 C-46.904998779296875,50.887001037597656 5.330999851226807,42.21699905395508 44.810001373291016,13.039999961853027 C44.810001373291016,13.039999961853027 88.87200164794922,-14.609999656677246 157.76400756835938,-4.538000106811523 C157.76400756835938,-4.538000106811523 170.58799743652344,-3.13700008392334 162.49099731445312,-13.442999839782715z"></path></g><g opacity="1" transform="matrix(1,0,0,1,185.69500732421875,308.802001953125)"><path fill="rgb(37,36,36)" fill-opacity="1" d=" M77.53800201416016,-5.535999774932861 C77.53800201416016,-5.535999774932861 -2.0239999294281006,26.19300079345703 -54.62900161743164,-6.455999851226807 C-54.62900161743164,-6.455999851226807 -70.98300170898438,-19.767000198364258 -81.56600189208984,-20.3439998626709 C-81.56600189208984,-20.3439998626709 -67.01399993896484,14.982000350952148 -34.520999908447266,17.801000595092773 C-34.520999908447266,17.801000595092773 15.842000007629395,30.461000442504883 80.91100311279297,-0.7139999866485596 C80.91100311279297,-0.7139999866485596 83.77100372314453,-7.770999908447266 77.53800201416016,-5.535999774932861z"></path></g><g opacity="1" transform="matrix(1,0,0,1,134.68699645996094,397.2070007324219)"><path fill="rgb(37,36,36)" fill-opacity="1" d=" M26.003999710083008,36.930999755859375 C26.003999710083008,36.930999755859375 -1.315999984741211,5.728000164031982 -25.770000457763672,-37.03799819946289 C-25.770000457763672,-37.03799819946289 -29.312000274658203,-13.107000350952148 -8.836999893188477,18.18899917602539 C-8.836999893188477,18.18899917602539 2.9570000171661377,38.68600082397461 26.003999710083008,36.930999755859375z"></path></g><g opacity="1" transform="matrix(1,0,0,1,541.8610229492188,313.6700134277344)"><path fill="rgb(234,172,163)" fill-opacity="1" d=" M-34.44499969482422,14.730999946594238 C-34.44499969482422,14.730999946594238 -44.48500061035156,-11.300000190734863 -32.040000915527344,-37.904998779296875 C-32.040000915527344,-37.904998779296875 -8.140999794006348,-63.7599983215332 13.65999984741211,-44.4109992980957 C13.65999984741211,-44.4109992980957 44.48500061035156,-17.097000122070312 32.04999923706055,21.204999923706055 C32.04999923706055,21.204999923706055 26.368000030517578,60.292999267578125 -9.07800006866455,63.7599983215332 C-9.07800006866455,63.7599983215332 -26.611000061035156,45.5629997253418 -34.44499969482422,14.730999946594238z"></path></g><g opacity="1" transform="matrix(1,0,0,1,540.8909912109375,316.0870056152344)"><path fill="rgb(212,144,132)" fill-opacity="1" d=" M-3.257999897003174,40.73400115966797 C-3.257999897003174,40.73400115966797 11.625,20.68400001525879 -5.193999767303467,10.420000076293945 C-5.193999767303467,10.420000076293945 -12.819999694824219,5.431000232696533 -21.511999130249023,8.758999824523926 C-21.511999130249023,8.758999824523926 -27.240999221801758,-9.265000343322754 -14.163999557495117,-25.98699951171875 C-14.163999557495117,-25.98699951171875 0.9980000257492065,-40.73500061035156 12.362000465393066,-15.640999794006348 C12.362000465393066,-15.640999794006348 27.242000579833984,19.381999969482422 -3.257999897003174,40.73400115966797z"></path></g><g opacity="1" transform="matrix(1,0,0,1,544.10302734375,597.0029907226562)"><path fill="rgb(250,250,253)" fill-opacity="1" d=" M2.3340001106262207,-8.026000022888184 C2.3340001106262207,-8.026000022888184 -7.811999797821045,-0.9229999780654907 -7.811999797821045,-0.9229999780654907 C-7.811999797821045,-0.9229999780654907 -8.670999526977539,8.026000022888184 -8.670999526977539,8.026000022888184 C-8.670999526977539,8.026000022888184 0.3019999861717224,1.746999979019165 0.3019999861717224,1.746999979019165 C0.3019999861717224,1.746999979019165 7.2220001220703125,2.0429999828338623 7.2220001220703125,2.0429999828338623 C7.2220001220703125,2.0429999828338623 8.670999526977539,1.0269999504089355 8.670999526977539,1.0269999504089355 C8.670999526977539,1.0269999504089355 2.3340001106262207,-8.026000022888184 2.3340001106262207,-8.026000022888184z"></path></g><g opacity="1" transform="matrix(1,0,0,1,556.27001953125,597)"><path fill="rgb(250,250,253)" fill-opacity="1" d=" M8.027999877929688,2.3340001106262207 C8.027999877929688,2.3340001106262207 0.925000011920929,-7.814000129699707 0.925000011920929,-7.814000129699707 C0.925000011920929,-7.814000129699707 -8.027999877929688,-8.666999816894531 -8.027999877929688,-8.666999816894531 C-8.027999877929688,-8.666999816894531 -1.746000051498413,0.3050000071525574 -1.746000051498413,0.3050000071525574 C-1.746000051498413,0.3050000071525574 -2.0409998893737793,7.210999965667725 -2.0409998893737793,7.210999965667725 C-2.0409998893737793,7.210999965667725 -1.024999976158142,8.666999816894531 -1.024999976158142,8.666999816894531 C-1.024999976158142,8.666999816894531 8.027999877929688,2.3340001106262207 8.027999877929688,2.3340001106262207z"></path></g><g opacity="1" transform="matrix(1,0,0,1,544.3610229492188,608.6309814453125)"><path fill="rgb(250,250,253)" fill-opacity="1" d=" M-8.031000137329102,-2.3299999237060547 C-8.031000137329102,-2.3299999237060547 -0.9350000023841858,7.815999984741211 -0.9350000023841858,7.815999984741211 C-0.9350000023841858,7.815999984741211 8.031000137329102,8.664999961853027 8.031000137329102,8.664999961853027 C8.031000137329102,8.664999961853027 1.7450000047683716,-0.3070000112056732 1.7450000047683716,-0.3070000112056732 C1.7450000047683716,-0.3070000112056732 2.0399999618530273,-7.210000038146973 2.0399999618530273,-7.210000038146973 C2.0399999618530273,-7.210000038146973 1.0210000276565552,-8.666000366210938 1.0210000276565552,-8.666000366210938 C1.0210000276565552,-8.666000366210938 -8.031000137329102,-2.3299999237060547 -8.031000137329102,-2.3299999237060547z"></path></g><g opacity="1" transform="matrix(1,0,0,1,556.2890014648438,608.6530151367188)"><path fill="rgb(250,250,253)" fill-opacity="1" d=" M-2.3289999961853027,8.03499984741211 C-2.3289999961853027,8.03499984741211 7.818999767303467,0.9319999814033508 7.818999767303467,0.9319999814033508 C7.818999767303467,0.9319999814033508 8.668999671936035,-8.03499984741211 8.668999671936035,-8.03499984741211 C8.668999671936035,-8.03499984741211 -0.31200000643730164,-1.7480000257492065 -0.31200000643730164,-1.7480000257492065 C-0.31200000643730164,-1.7480000257492065 -7.2129998207092285,-2.0460000038146973 -7.2129998207092285,-2.0460000038146973 C-7.2129998207092285,-2.0460000038146973 -8.668999671936035,-1.0240000486373901 -8.668999671936035,-1.0240000486373901 C-8.668999671936035,-1.0240000486373901 -2.3289999961853027,8.03499984741211 -2.3289999961853027,8.03499984741211z"></path></g><g opacity="1" transform="matrix(1,0,0,1,580.8679809570312,688.9130249023438)"><path fill="rgb(28,28,30)" fill-opacity="1" d=" M39.37900161743164,-38.301998138427734 C39.37900161743164,-38.301998138427734 -10.291000366210938,5.585999965667725 -48.43000030517578,30.04199981689453 C-48.43000030517578,30.04199981689453 -41.78499984741211,38.301998138427734 -41.78499984741211,38.301998138427734 C-41.78499984741211,38.301998138427734 36.946998596191406,-14.222000122070312 48.43000030517578,-25.36400032043457 C48.43000030517578,-25.36400032043457 39.37900161743164,-38.301998138427734 39.37900161743164,-38.301998138427734z"></path></g><g opacity="1" transform="matrix(1,0,0,1,566.4030151367188,702.43798828125)"><path fill="rgb(157,147,144)" fill-opacity="1" d=" M5.183000087738037,-12.277999877929688 C5.183000087738037,-12.277999877929688 13.244999885559082,-1.4630000591278076 13.244999885559082,-1.4630000591278076 C13.244999885559082,-1.4630000591278076 -5.183000087738037,12.277999877929688 -5.183000087738037,12.277999877929688 C-5.183000087738037,12.277999877929688 -13.244999885559082,1.4620000123977661 -13.244999885559082,1.4620000123977661 C-13.244999885559082,1.4620000123977661 5.183000087738037,-12.277999877929688 5.183000087738037,-12.277999877929688z"></path></g><g opacity="1" transform="matrix(1,0,0,1,603.0280151367188,674.6170043945312)"><path fill="rgb(60,65,78)" fill-opacity="1" d=" M-5.798999786376953,-4.427000045776367 C-5.798999786376953,-4.427000045776367 2.50600004196167,7.117000102996826 2.50600004196167,7.117000102996826 C2.50600004196167,7.117000102996826 5.798999786376953,4.809999942779541 5.798999786376953,4.809999942779541 C5.798999786376953,4.809999942779541 -2.552000045776367,-7.117000102996826 -2.552000045776367,-7.117000102996826 C-2.552000045776367,-7.117000102996826 -5.798999786376953,-4.427000045776367 -5.798999786376953,-4.427000045776367z"></path></g><g opacity="1" transform="matrix(1,0,0,1,541.35302734375,719.4349975585938)"><path fill="rgb(60,65,78)" fill-opacity="1" d=" M-4.765999794006348,-3.180000066757202 C-4.765999794006348,-3.180000066757202 1.4769999980926514,5.5 1.4769999980926514,5.5 C1.4769999980926514,5.5 4.765999794006348,3.2019999027252197 4.765999794006348,3.2019999027252197 C4.765999794006348,3.2019999027252197 -1.3229999542236328,-5.5 -1.3229999542236328,-5.5 C-1.3229999542236328,-5.5 -4.765999794006348,-3.180000066757202 -4.765999794006348,-3.180000066757202z"></path></g></g></g></svg>