<svg xmlns="http://www.w3.org/2000/svg" viewBox="0 0 1000 1000" width="1000" height="1000" preserveAspectRatio="xMidYMid meet" style="width: 100%;height: 100%;/* transform: translate3d(0px, 0px, 0px); */"><defs><clipPath id="__lottie_element_3"><rect width="1000" height="1000" x="0" y="0"></rect></clipPath></defs><g clip-path="url(#__lottie_element_3)"><g transform="matrix(1,0,0,1,0,0)" opacity="1" style="display: block;"><g opacity="1" transform="matrix(1,0,0,1,521.9390258789062,501.57501220703125)"><path fill="rgb(241,241,241)" fill-opacity="1" d=" M445.2699890136719,-0.0010000000474974513 C445.2699890136719,245.9149932861328 245.91600036621094,445.27099609375 0,445.27099609375 C-245.9149932861328,445.27099609375 -445.2699890136719,245.9149932861328 -445.2699890136719,-0.0010000000474974513 C-445.2699890136719,-245.91600036621094 -245.9149932861328,-445.27099609375 0,-445.27099609375 C245.91600036621094,-445.27099609375 445.2699890136719,-245.91600036621094 445.2699890136719,-0.0010000000474974513z"></path></g><g opacity="1" transform="matrix(1,0,0,1,471.95599365234375,858.2620239257812)"><path fill="rgb(131,95,92)" fill-opacity="1" d=" M266.8500061035156,6.192999839782715 C266.8500061035156,10.043000221252441 263.70001220703125,13.192999839782715 259.8500061035156,13.192999839782715 C259.8500061035156,13.192999839782715 -259.8500061035156,13.192999839782715 -259.8500061035156,13.192999839782715 C-263.70001220703125,13.192999839782715 -266.8500061035156,10.043000221252441 -266.8500061035156,6.192999839782715 C-266.8500061035156,6.192999839782715 -266.8500061035156,-6.192999839782715 -266.8500061035156,-6.192999839782715 C-266.8500061035156,-10.041999816894531 -263.70001220703125,-13.192999839782715 -259.8500061035156,-13.192999839782715 C-259.8500061035156,-13.192999839782715 259.8500061035156,-13.192999839782715 259.8500061035156,-13.192999839782715 C263.70001220703125,-13.192999839782715 266.8500061035156,-10.041999816894531 266.8500061035156,-6.192999839782715 C266.8500061035156,-6.192999839782715 266.8500061035156,6.192999839782715 266.8500061035156,6.192999839782715z"></path></g><g opacity="1" transform="matrix(1,0,0,1,461.4169921875,643.06201171875)"><path fill="rgb(57,86,202)" fill-opacity="1" d=" M-30.121999740600586,-61.07500076293945 C-35.29600143432617,-57.659000396728516 -38.59299850463867,-55.305999755859375 -50.242000579833984,-45.74800109863281 C-58.691001892089844,-38.814998626708984 -71.90699768066406,-24.118000030517578 -73.41699981689453,-22.565000534057617 C-77.29100036621094,-18.582000732421875 -93.66699981689453,-0.1509999930858612 -107.91699981689453,15.439000129699707 C-107.91699981689453,15.439000129699707 -95.08300018310547,38.27199935913086 -87.21800231933594,47.60599899291992 C-87.21800231933594,47.60599899291992 -85.2750015258789,45.736000061035156 -78.41699981689453,32.27199935913086 C-75.2030029296875,25.961999893188477 -74.08300018310547,22.606000900268555 -71.08300018310547,16.93899917602539 C-68.4990005493164,12.057000160217285 -65.62699890136719,3.4700000286102295 -61.10599899291992,-0.5040000081062317 C-61.10599899291992,-0.5040000081062317 -41.75600051879883,-19.09600067138672 -41.75600051879883,-19.09600067138672 C-41.75600051879883,-19.09600067138672 -42.96200180053711,40.244998931884766 -42.96200180053711,40.244998931884766 C-42.96200180053711,40.244998931884766 -48.05500030517578,57.10900115966797 -39.85599899291992,63.72100067138672 C-39.85599899291992,63.72100067138672 -32.90299987792969,64.72799682617188 4.329999923706055,64.33300018310547 C51.33399963378906,63.83300018310547 51.16999816894531,62.99100112915039 51.16999816894531,62.99100112915039 C51.16999816894531,62.99100112915039 60.143001556396484,58.86399841308594 59.52399826049805,47.7140007019043 C58.9739990234375,37.77899932861328 54.54600143432617,22.405000686645508 55.47700119018555,-19.46500015258789 C57.94599914550781,-17.107999801635742 67.63300323486328,-7.401000022888184 79.83100128173828,1.7330000400543213 C83.99299621582031,4.848999977111816 64.41100311279297,14.954999923706055 66.91699981689453,20.93899917602539 C69.70899963378906,27.606000900268555 76.93000030517578,37.987998962402344 76.91699981689453,35.27199935913086 C76.88600158691406,28.17799949645996 107.91699981689453,-5.414999961853027 107.91699981689453,-5.414999961853027 C107.91699981689453,-5.414999961853027 85.93099975585938,-26.268999099731445 81.94499969482422,-30.29400062561035 C74.22599792480469,-38.0890007019043 66.85700225830078,-45.069000244140625 58.731998443603516,-50.917999267578125 C49.86399841308594,-57.301998138427734 44.909000396728516,-63.99399948120117 26.29400062561035,-63.97600173950195 C26.29400062561035,-63.97600173950195 6.263999938964844,-44.625999450683594 6.263999938964844,-44.625999450683594 C6.263999938964844,-44.625999450683594 0.8399999737739563,-46.625 -10.944999694824219,-64.72799682617188 C-10.944999694824219,-64.72799682617188 -25.72800064086914,-63.97600173950195 -30.121999740600586,-61.07500076293945z"></path></g><g opacity="1" transform="matrix(1,0,0,1,467.7929992675781,647.4920043945312)"><path fill="rgb(57,59,157)" fill-opacity="1" d=" M-9.052000045776367,-58.9109992980957 C-9.052000045776367,-58.9109992980957 -0.4519999921321869,-51.768001556396484 -0.4519999921321869,-51.768001556396484 C-0.4519999921321869,-51.768001556396484 7.526000022888184,-58.9109992980957 7.526000022888184,-58.9109992980957 C7.526000022888184,-58.9109992980957 20.483999252319336,-55.619998931884766 26.027999877929688,-49.5 C26.027999877929688,-49.5 7.468999862670898,-54.70500183105469 7.468999862670898,-54.70500183105469 C7.468999862670898,-54.70500183105469 2.5390000343322754,-51.03900146484375 1.1319999694824219,-49.277000427246094 C1.1319999694824219,-49.277000427246094 2.490000009536743,58.9010009765625 2.490000009536743,58.9010009765625 C2.490000009536743,58.9010009765625 1.3580000400543213,58.9109992980957 1.3580000400543213,58.9109992980957 C1.3580000400543213,58.9109992980957 -1.8109999895095825,-48.597999572753906 -1.8109999895095825,-48.597999572753906 C-1.8109999895095825,-48.597999572753906 -6.9029998779296875,-52.83399963378906 -9.052000045776367,-54.0260009765625 C-9.052000045776367,-54.0260009765625 -26.027999877929688,-50.17900085449219 -26.027999877929688,-50.17900085449219 C-26.027999877929688,-50.17900085449219 -22.518999099731445,-53.47200012207031 -9.052000045776367,-58.9109992980957z"></path></g><g opacity="1" transform="matrix(1,0,0,1,450.2539978027344,580.8579711914062)"><path fill="rgb(32,45,136)" fill-opacity="1" d=" M3.2809998989105225,-14.47700023651123 C0,0.09399999678134918 8.48799991607666,7.7230000495910645 8.48799991607666,7.7230000495910645 C8.48799991607666,7.7230000495910645 -8.48799991607666,16.45599937438965 -8.48799991607666,16.45599937438965 C-8.48799991607666,16.45599937438965 -7.607999801635742,1.6369999647140503 -4.413000106811523,-4.039000034332275 C-3.2780001163482666,-6.052999973297119 3.7269999980926514,-16.45599937438965 3.2809998989105225,-14.47700023651123z"></path></g><g opacity="1" transform="matrix(1,0,0,1,484.9219970703125,582.3720092773438)"><path fill="rgb(32,45,136)" fill-opacity="1" d=" M-0.9120000004768372,-15.621000289916992 C-0.9120000004768372,-15.621000289916992 -0.34599998593330383,-6.171999931335449 -1.937999963760376,-2.507999897003174 C-4.039999961853027,2.3359999656677246 -9.602999687194824,6.210000038146973 -9.602999687194824,6.210000038146973 C-9.602999687194824,6.210000038146973 2.446000099182129,10.602999687194824 8.899999618530273,15.621000289916992 C8.899999618530273,15.621000289916992 9.602999687194824,-10.60200023651123 -0.9120000004768372,-15.621000289916992z"></path></g><g opacity="1" transform="matrix(1,0,0,1,390.69000244140625,656.7930297851562)"><path fill="rgb(57,59,157)" fill-opacity="1" d=" M21.334999084472656,-25.099000930786133 C21.334999084472656,-25.099000930786133 26.2450008392334,-30.20800018310547 26.2450008392334,-30.20800018310547 C26.2450008392334,-30.20800018310547 6.000999927520752,-17.3700008392334 0.34200000762939453,-17.3700008392334 C-11.243000030517578,-17.3700008392334 -21.861000061035156,17.851999282836914 -26.243999481201172,15.406000137329102 C-26.243999481201172,15.406000137329102 -21.49799919128418,28.31100082397461 -22.356000900268555,30.207000732421875 C-22.356000900268555,30.207000732421875 -18.02199935913086,27.207000732421875 -7.689000129699707,18.540000915527344 C-4.48199987411499,15.848999977111816 -1.468999981880188,-4.790999889373779 7.514999866485596,-12.559000015258789 C12.517000198364258,-16.885000228881836 15.324000358581543,-19.714000701904297 21.334999084472656,-25.099000930786133z"></path></g><g opacity="1" transform="matrix(1,0,0,1,542.9630126953125,649.8679809570312)"><path fill="rgb(57,59,157)" fill-opacity="1" d=" M14.036999702453613,22.131999969482422 C15.222999572753906,21.448999404907227 23.729999542236328,15.46500015258789 23.729999542236328,15.46500015258789 C23.729999542236328,15.46500015258789 16.08799934387207,-10.449999809265137 5.361999988555908,-11.293000221252441 C-2.1110000610351562,-11.88599967956543 -21.14900016784668,-22.989999771118164 -23.731000900268555,-24.010000228881836 C-23.731000900268555,-24.010000228881836 -15.095999717712402,-15.78499984741211 -7.539000034332275,-8.979999542236328 C2.98799991607666,0.49300000071525574 1.9259999990463257,-1.565000057220459 3.371000051498413,5.465000152587891 C4.756999969482422,12.206000328063965 10.770999908447266,24.009000778198242 14.036999702453613,22.131999969482422z"></path></g><g opacity="1" transform="matrix(1,0,0,1,467.2619934082031,712.4310302734375)"><path fill="rgb(28,28,30)" fill-opacity="1" d=" M-45.51300048828125,-5.609000205993652 C10.33899974822998,-6.046000003814697 6.376999855041504,-6.336999893188477 45.51300048828125,-6.336999893188477 C45.51300048828125,-6.336999893188477 45.209999084472656,3.8959999084472656 45.209999084472656,3.8959999084472656 C45.209999084472656,3.8959999084472656 -30.625999450683594,6.3379998207092285 -44.810001373291016,4.954999923706055 C-44.810001373291016,4.954999923706055 -45.51300048828125,-5.609000205993652 -45.51300048828125,-5.609000205993652z"></path></g><g opacity="1" transform="matrix(1,0,0,1,469.8479919433594,711.947998046875)"><path fill="rgb(157,147,144)" fill-opacity="1" d=" M-10.335000038146973,-5.690000057220459 C-10.335000038146973,-5.690000057220459 -10.142999649047852,6.026000022888184 -10.142999649047852,6.026000022888184 C-10.142999649047852,6.026000022888184 10.335000038146973,5.692999839782715 10.335000038146973,5.692999839782715 C10.335000038146973,5.692999839782715 10.145000457763672,-6.026000022888184 10.145000457763672,-6.026000022888184 C10.145000457763672,-6.026000022888184 -10.335000038146973,-5.690000057220459 -10.335000038146973,-5.690000057220459z"></path></g><g opacity="1" transform="matrix(1,0,0,1,443.3349914550781,712.125)"><path fill="rgb(60,65,78)" fill-opacity="1" d=" M1.8569999933242798,-5.683000087738037 C1.8569999933242798,-5.683000087738037 1.7029999494552612,5.683000087738037 1.7029999494552612,5.683000087738037 C1.7029999494552612,5.683000087738037 -1.8569999933242798,5.679999828338623 -1.8569999933242798,5.679999828338623 C-1.8569999933242798,5.679999828338623 -1.8569999933242798,-5.683000087738037 -1.8569999933242798,-5.683000087738037 C-1.8569999933242798,-5.683000087738037 1.8569999933242798,-5.683000087738037 1.8569999933242798,-5.683000087738037z"></path></g><g opacity="1" transform="matrix(1,0,0,1,498.55499267578125,711.5150146484375)"><path fill="rgb(60,65,78)" fill-opacity="1" d=" M1.437999963760376,-5.421999931335449 C1.437999963760376,-5.421999931335449 1.6510000228881836,5.422999858856201 1.6510000228881836,5.422999858856201 C1.6510000228881836,5.422999858856201 -1.6519999504089355,5.422999858856201 -1.6519999504089355,5.422999858856201 C-1.6519999504089355,5.422999858856201 -1.6519999504089355,-5.421999931335449 -1.6519999504089355,-5.421999931335449 C-1.6519999504089355,-5.421999931335449 1.437999963760376,-5.421999931335449 1.437999963760376,-5.421999931335449z"></path></g><g opacity="1" transform="matrix(1,0,0,1,468.7590026855469,574.3259887695312)"><path fill="rgb(210,142,136)" fill-opacity="1" d=" M-16.030000686645508,-21.398000717163086 C-16.030000686645508,-21.398000717163086 -16.51099967956543,-4.71999979019165 -16.030000686645508,0.414000004529953 C-15.395000457763672,7.179999828338623 -12.027999877929688,16.385000228881836 -1.4190000295639038,21.398000717163086 C-1.4190000295639038,21.398000717163086 9.520999908447266,17.02199935913086 14.413000106811523,4.672999858856201 C16.51099967956543,-0.6209999918937683 16.0049991607666,-21.398000717163086 16.0049991607666,-21.398000717163086 C16.0049991607666,-21.398000717163086 -16.030000686645508,-21.398000717163086 -16.030000686645508,-21.398000717163086z"></path></g><g opacity="1" transform="matrix(1,0,0,1,472.80499267578125,369.2770080566406)"><path fill="rgb(238,193,177)" fill-opacity="1" d=" M-138.8979949951172,95.5739974975586 C-138.8979949951172,95.5739974975586 -129.42599487304688,186.39599609375 -6.105999946594238,192.3070068359375 C-6.105999946594238,192.3070068359375 100.14399719238281,189.8990020751953 133.60000610351562,118.20899963378906 C133.60000610351562,118.20899963378906 141.4669952392578,103.19400024414062 144.27000427246094,68.84500122070312 C146.03500366210938,47.229000091552734 146.6750030517578,15.121000289916992 147.1790008544922,4.5970001220703125 C147.93099975585938,-11.104000091552734 141.4810028076172,-48.92100143432617 139.93499755859375,-57.86800003051758 C139.93499755859375,-57.86800003051758 103.7239990234375,-192.3070068359375 -105.85399627685547,-112.63800048828125 C-105.85399627685547,-112.63800048828125 -134.3719940185547,-87.74400329589844 -144.781005859375,-14.414999961853027 C-144.781005859375,-14.414999961853027 -147.93099975585938,21.224000930786133 -147.13999938964844,33.08700180053711 C-145.74400329589844,53.994998931884766 -142.54400634765625,73.63300323486328 -138.8979949951172,95.5739974975586z"></path></g><g opacity="1" transform="matrix(1,0,0,1,443.4389953613281,452.52899169921875)"><path fill="rgb(221,153,144)" fill-opacity="1" d=" M-115.10099792480469,-69.51499938964844 C-115.10099792480469,-69.51499938964844 -127.60800170898438,75.01200103759766 -10.383000373840332,98.93299865722656 C7.949999809265137,102.67400360107422 81.8030014038086,105.83100128173828 127.60800170898438,76.06700134277344 C127.60800170898438,76.06700134277344 78.8010025024414,115.1500015258789 0.6050000190734863,108.22000122070312 C-25.32200050354004,105.9209976196289 -82.09600067138672,83.51899719238281 -102.19999694824219,42.21900177001953 C-102.19999694824219,42.21900177001953 -117.9020004272461,12.980999946594238 -121.0989990234375,-17.520999908447266 C-121.0989990234375,-17.520999908447266 -124.38500213623047,-47.69200134277344 -121.88999938964844,-83.77400207519531 C-120.75599670410156,-100.14299774169922 -107.21700286865234,-96.92900085449219 -93.40499877929688,-115.1500015258789 C-93.40499877929688,-115.1500015258789 -112.65299987792969,-95.65699768066406 -115.10099792480469,-69.51499938964844z"></path></g><g opacity="1" transform="matrix(1,0,0,1,469.4150085449219,471.5610046386719)"><path fill="rgb(212,144,132)" fill-opacity="1" d=" M-22.655000686645508,-7.296000003814697 C-22.655000686645508,-7.296000003814697 -10.954999923706055,-5.316999912261963 1.968000054359436,-5.033999919891357 C7.820000171661377,-4.906000137329102 18.118999481201172,-6.13700008392334 22.655000686645508,-7.296000003814697 C22.655000686645508,-7.296000003814697 20.719999313354492,4.057000160217285 8.531000137329102,6.564000129699707 C8.531000137329102,6.564000129699707 -8.336000442504883,10.470999717712402 -16.604000091552734,0.2290000021457672 C-18.469999313354492,-2.0840001106262207 -22.655000686645508,-7.296000003814697 -22.655000686645508,-7.296000003814697z"></path></g><g opacity="1" transform="matrix(1,0,0,1,483.6610107421875,470.46600341796875)"><path fill="rgb(123,71,69)" fill-opacity="1" d=" M-4.888000011444092,4.814000129699707 C-4.888000011444092,4.814000129699707 -1.253000020980835,-4.814000129699707 2.865999937057495,-3.318000078201294 C3.821000099182129,-2.9690001010894775 4.888999938964844,-1.6260000467300415 2.865999937057495,0.7459999918937683 C2.865999937057495,0.7459999918937683 -1.1829999685287476,4.473999977111816 -4.888000011444092,4.814000129699707z"></path></g><g opacity="1" transform="matrix(1,0,0,1,458.1210021972656,470.46600341796875)"><path fill="rgb(123,71,69)" fill-opacity="1" d=" M4.888999938964844,4.814000129699707 C4.888999938964844,4.814000129699707 1.253999948501587,-4.814000129699707 -2.865000009536743,-3.318000078201294 C-3.822000026702881,-2.9690001010894775 -4.888999938964844,-1.6260000467300415 -2.865000009536743,0.7459999918937683 C-2.865000009536743,0.7459999918937683 1.1829999685287476,4.473999977111816 4.888999938964844,4.814000129699707z"></path></g><g opacity="1" transform="matrix(1,0,0,1,468.364990234375,504.4169921875)"><path fill="rgb(18,43,70)" fill-opacity="1" d=" M-58.209999084472656,-16.670000076293945 C-58.209999084472656,-16.670000076293945 -50.4010009765625,-10.729999542236328 -30.371999740600586,-8.354000091552734 C-8.267000198364258,-5.729000091552734 33.11199951171875,-4.111999988555908 58.209999084472656,-19.180999755859375 C58.209999084472656,-19.180999755859375 54.70800018310547,15.437000274658203 1.2009999752044678,17.447999954223633 C-44.93299865722656,19.180999755859375 -58.209999084472656,-16.670000076293945 -58.209999084472656,-16.670000076293945z"></path></g><g opacity="1" transform="matrix(1,0,0,1,467.802001953125,500.7349853515625)"><path fill="rgb(255,255,255)" fill-opacity="1" d=" M1.6130000352859497,9.696999549865723 C18.410999298095703,9.696999549865723 40.63600158691406,7.888999938964844 42.78300094604492,3.8489999771118164 C45.02000045776367,-0.3540000021457672 44.87900161743164,-5.021999835968018 44.87900161743164,-9.696000099182129 C7.35699987411499,0.6700000166893005 -45.02000045776367,-7.914999961853027 -45.02000045776367,-7.914999961853027 C-45.02000045776367,-7.914999961853027 -41.74700164794922,2.2669999599456787 -39.03799819946289,4.945000171661377 C-35.415000915527344,8.531000137329102 -25.03700065612793,9.696999549865723 1.6130000352859497,9.696999549865723z"></path></g><g opacity="1" transform="matrix(1,0,0,1,470.2690124511719,515.6589965820312)"><path fill="rgb(255,255,255)" fill-opacity="1" d=" M-0.5699999928474426,-1.2630000114440918 C15.958999633789062,-0.9240000247955322 41.50699996948242,-6.770999908447266 41.50699996948242,-6.770999908447266 C41.50699996948242,-6.770999908447266 27.756000518798828,6.770999908447266 -1.3830000162124634,6.770999908447266 C-28.04400062561035,6.770999908447266 -41.50699996948242,-5.0279998779296875 -41.50699996948242,-5.0279998779296875 C-41.50699996948242,-5.0279998779296875 -37.297000885009766,-2.0160000324249268 -0.5699999928474426,-1.2630000114440918z"></path></g><g opacity="1" transform="matrix(1,0,0,1,410.3699951171875,489.2950134277344)"><path fill="rgb(197,132,119)" fill-opacity="1" d=" M5.136000156402588,-4.736999988555908 C5.119999885559082,-5.2270002365112305 3.0139999389648438,-5.473999977111816 0.9739999771118164,-4.73199987411499 C-1.0540000200271606,-4.033999919891357 -2.694999933242798,-2.5290000438690186 -2.694999933242798,-2.5290000438690186 C-2.694999933242798,-2.5290000438690186 -4.064000129699707,-0.7770000100135803 -4.589000225067139,1.3070000410079956 C-5.168000221252441,3.3970000743865967 -4.752999782562256,5.473999977111816 -4.26200008392334,5.453000068664551 C-3.7709999084472656,5.441999912261963 -3.250999927520752,3.688999891281128 -2.265000104904175,2.313999891281128 C-1.3070000410079956,0.9089999794960022 -0.06800000369548798,-0.1080000028014183 -0.06800000369548798,-0.1080000028014183 C-0.06800000369548798,-0.1080000028014183 0.8460000157356262,-1.4270000457763672 2.1700000762939453,-2.496000051498413 C3.4579999446868896,-3.5840001106262207 5.169000148773193,-4.245999813079834 5.136000156402588,-4.736999988555908z"></path></g><g opacity="1" transform="matrix(1,0,0,1,468.385009765625,491.2279968261719)"><path fill="rgb(197,132,119)" fill-opacity="1" d=" M58.19200134277344,-5.993000030517578 C58.44200134277344,-5.77400016784668 49.42100143432617,0.7609999775886536 37.3380012512207,2.9660000801086426 C20.757999420166016,5.993000030517578 5.248000144958496,5.870999813079834 -1.7610000371932983,5.849999904632568 C-9.298999786376953,5.826000213623047 -36.15999984741211,4.517000198364258 -47.0260009765625,2.006999969482422 C-52.40800094604492,0.7609999775886536 -58.441001892089844,-3.2219998836517334 -58.229000091552734,-3.4820001125335693 C-57.979000091552734,-3.8259999752044678 -50.202999114990234,-0.972000002861023 -44.98899841308594,-0.06599999964237213 C-31.40999984741211,2.2880001068115234 -9.230999946594238,2.4730000495910645 -1.7610000371932983,2.680000066757202 C5.109000205993652,2.871000051498413 26.02899932861328,1.496000051498413 37.167999267578125,-0.03799999877810478 C46.16400146484375,-1.2760000228881836 54.56999969482422,-5.0960001945495605 58.19200134277344,-5.993000030517578z"></path></g><g opacity="1" transform="matrix(1,0,0,1,525.9450073242188,486.7149963378906)"><path fill="rgb(197,132,119)" fill-opacity="1" d=" M-5.315000057220459,-2.6589999198913574 C-5.559000015258789,-3.1059999465942383 -3.8399999141693115,-4.3379998207092285 -1.6640000343322754,-4.36899995803833 C-0.609000027179718,-4.4070000648498535 0.47200000286102295,-4.195000171661377 1.253999948501587,-3.9000000953674316 C2.0369999408721924,-3.615999937057495 2.5269999504089355,-3.311000108718872 2.5269999504089355,-3.311000108718872 C2.5269999504089355,-3.311000108718872 2.9749999046325684,-2.944999933242798 3.496999979019165,-2.296999931335449 C4.026000022888184,-1.652999997138977 4.578000068664551,-0.7009999752044678 4.879000186920166,0.3160000145435333 C5.558000087738037,2.378000020980835 4.947000026702881,4.4070000648498535 4.445000171661377,4.322000026702881 C3.9609999656677246,4.271999835968018 3.555999994277954,2.5929999351501465 2.563999891281128,1.434000015258789 C1.6299999952316284,0.2070000022649765 0.41200000047683716,-0.35499998927116394 0.41200000047683716,-0.35499998927116394 C0.41200000047683716,-0.35499998927116394 -0.515999972820282,-1.3229999542236328 -1.9780000448226929,-1.815000057220459 C-3.3940000534057617,-2.378000020980835 -5.114999771118164,-2.2139999866485596 -5.315000057220459,-2.6589999198913574z"></path></g><g opacity="1" transform="matrix(1,0,0,1,467.6180114746094,535.9840087890625)"><path fill="rgb(197,132,119)" fill-opacity="1" d=" M12.307000160217285,-3.25600004196167 C12.800999641418457,-2.7139999866485596 10.482000350952148,0.032999999821186066 7.205999851226807,1.680999994277954 C3.984999895095825,3.384000062942505 0.2590000033378601,3.816999912261963 0.2590000033378601,3.816999912261963 C0.2590000033378601,3.816999912261963 -3.4860000610351562,3.7070000171661377 -6.84499979019165,2.2960000038146973 C-10.253999710083008,0.9419999718666077 -12.800000190734863,-1.5889999866485596 -12.357000350952148,-2.171999931335449 C-11.927000045776367,-2.7780001163482666 -8.92199993133545,-1.6009999513626099 -5.896999835968018,-1.3619999885559082 C-2.8499999046325684,-1.062000036239624 0.02500000037252903,-1.5240000486373901 0.02500000037252903,-1.5240000486373901 C0.02500000037252903,-1.5240000486373901 2.936000108718872,-1.315000057220459 5.935999870300293,-1.8819999694824219 C8.930999755859375,-2.382999897003174 11.82699966430664,-3.815999984741211 12.307000160217285,-3.25600004196167z"></path></g><g opacity="1" transform="matrix(1,0,0,1,471.71600341796875,438.5870056152344)"><path fill="rgb(212,144,132)" fill-opacity="1" d=" M0.01600000075995922,-20.611000061035156 C0.01600000075995922,-20.611000061035156 -0.33399999141693115,-1.0269999504089355 6.50600004196167,18.434999465942383 C6.50600004196167,18.434999465942383 5.482999801635742,22.33799934387207 -6.361000061035156,19.69300079345703 C-7.616000175476074,17.055999755859375 -0.33399999141693115,-1.0269999504089355 0.01600000075995922,-20.611000061035156z"></path></g><g opacity="1" transform="matrix(1,0,0,1,482.3110046386719,329.8089904785156)"><path fill="rgb(221,153,144)" fill-opacity="1" d=" M-151.4929962158203,39.49399948120117 C-151.4929962158203,39.49399948120117 -130.27699279785156,-26.402999877929688 -57.895999908447266,-22.158000946044922 C-31.343000411987305,-20.600000381469727 7.133999824523926,-12.699000358581543 43.55799865722656,-20.125999450683594 C64.44599914550781,-24.385000228881836 82.66899871826172,-36.974998474121094 95.93199920654297,-52.48400115966797 C95.93199920654297,-52.48400115966797 115.38300323486328,-26.167999267578125 119.93099975585938,-7.676000118255615 C128.49899291992188,27.17799949645996 125.50399780273438,17.951000213623047 130.8560028076172,79.64700317382812 C130.8560028076172,79.64700317382812 141.4669952392578,39.07400131225586 141.4669952392578,39.07400131225586 C141.4669952392578,39.07400131225586 156.54800415039062,-60.486000061035156 90.38099670410156,-68.0270004272461 C-11.607000350952148,-79.64700317382812 90.38099670410156,-68.0270004272461 90.38099670410156,-68.0270004272461 C90.38099670410156,-68.0270004272461 -68.33499908447266,-64.86799621582031 -135.97999572753906,-17.40999984741211 C-156.54800415039062,-2.9820001125335693 -150.32899475097656,15.229000091552734 -151.4929962158203,39.49399948120117z"></path></g><g opacity="1" transform="matrix(1,0,0,1,399.00799560546875,340.3280029296875)"><path fill="rgb(34,40,45)" fill-opacity="1" d=" M31.54199981689453,5.377999782562256 C31.54199981689453,5.377999782562256 -14.338000297546387,7.5269999504089355 -35.845001220703125,21.149999618530273 C-35.845001220703125,21.149999618530273 -49.465999603271484,20.433000564575195 -27.958999633789062,5.377999782562256 C-27.958999633789062,5.377999782562256 7.885000228881836,-21.149999618530273 38.709999084472656,-13.979999542236328 C38.709999084472656,-13.979999542236328 49.465999603271484,-1.0779999494552612 31.54199981689453,5.377999782562256z"></path></g><g opacity="1" transform="matrix(1,0,0,1,540.8599853515625,340.3280029296875)"><path fill="rgb(34,40,45)" fill-opacity="1" d=" M-31.541000366210938,5.377999782562256 C-31.541000366210938,5.377999782562256 14.33899974822998,7.5269999504089355 35.84600067138672,21.149999618530273 C35.84600067138672,21.149999618530273 49.46500015258789,20.43000030517578 27.958999633789062,5.377999782562256 C27.958999633789062,5.377999782562256 -7.885000228881836,-21.149999618530273 -38.709999084472656,-13.979999542236328 C-38.709999084472656,-13.979999542236328 -49.46500015258789,-1.0779999494552612 -31.541000366210938,5.377999782562256z"></path></g><g opacity="1" transform="matrix(1,0,0,1,554.9600219726562,516.7139892578125)"><path fill="rgb(221,153,144)" fill-opacity="1" d=" M46.40599822998047,-23.52199935913086 C41.4010009765625,-15.236000061035156 23.364999771118164,23.98200035095215 -54.808998107910156,36.99800109863281 C-54.808998107910156,36.99800109863281 -30.17099952697754,39.145999908447266 11.184000015258789,15.739999771118164 C11.180000305175781,15.744999885559082 45.3129997253418,-2.242000102996826 54.808998107910156,-39.145999908447266 C54.808998107910156,-39.145999908447266 48.11399841308594,-26.358999252319336 46.40599822998047,-23.52199935913086z"></path></g><g opacity="1" transform="matrix(1,0,0,1,296.2130126953125,422.7980041503906)"><path fill="rgb(228,174,160)" fill-opacity="1" d=" M27.97100067138672,-10.72700023651123 C27.97100067138672,-10.72700023651123 23.97800064086914,-34.01499938964844 4.327000141143799,-40.819000244140625 C4.327000141143799,-40.819000244140625 -22.05900001525879,-46.558998107910156 -27.25,-24.815000534057617 C-27.25,-24.815000534057617 -34.60499954223633,5.896999835968018 -9.949000358581543,24.493999481201172 C-9.949000358581543,24.493999481201172 10.814000129699707,46.558998107910156 34.60499954223633,33.150001525878906 C34.60499954223633,33.150001525878906 32.64099884033203,12.696999549865723 27.97100067138672,-10.72700023651123z"></path></g><g opacity="1" transform="matrix(1,0,0,1,298.1610107421875,420.47601318359375)"><path fill="rgb(200,133,121)" fill-opacity="1" d=" M19.25,24.656999588012695 C19.25,24.656999588012695 1.0809999704360962,18.599000930786133 7.13700008392334,4.757999897003174 C7.13700008392334,4.757999897003174 9.730999946594238,-1.7289999723434448 16.652000427246094,-3.4609999656677246 C16.652000427246094,-3.4609999656677246 12.329000473022461,-17.302000045776367 -3.242000102996826,-22.058000564575195 C-3.242000102996826,-22.058000564575195 -19.249000549316406,-24.656999588012695 -15.354999542236328,-3.8940000534057617 C-15.354999542236328,-3.8940000534057617 -9.300000190734863,24.656999588012695 19.25,24.656999588012695z"></path></g><g opacity="1" transform="matrix(1,0,0,1,642.56201171875,423.2279968261719)"><path fill="rgb(228,174,160)" fill-opacity="1" d=" M-29.472000122070312,-6.918000221252441 C-29.472000122070312,-6.918000221252441 -29.48200035095215,-27.66900062561035 -10.45199966430664,-37.5880012512207 C-2.9760000705718994,-41.487998962402344 13.918999671936035,-45.834999084472656 21.152000427246094,-25.80500030517578 C21.152000427246094,-25.80500030517578 31.392000198364258,2.492000102996826 10.031999588012695,22.72800064086914 C10.031999588012695,22.72800064086914 -7.276000022888184,45.834999084472656 -31.229999542236328,35.67300033569336 C-31.229999542236328,35.67300033569336 -31.392000198364258,15.758999824523926 -29.472000122070312,-6.918000221252441z"></path></g><g opacity="1" transform="matrix(1,0,0,1,640.7860107421875,420.614990234375)"><path fill="rgb(200,133,121)" fill-opacity="1" d=" M-15.326000213623047,25.398000717163086 C-15.326000213623047,25.398000717163086 1.2300000190734863,17.731000900268555 -5.980000019073486,5.263999938964844 C-5.980000019073486,5.263999938964844 -9.126999855041504,-0.5979999899864197 -15.866000175476074,-1.4989999532699585 C-15.866000175476074,-1.4989999532699585 -13.24899959564209,-15.064000129699707 0.9879999756813049,-21.23200035095215 C0.9879999756813049,-21.23200035095215 15.866000175476074,-25.398000717163086 14.394000053405762,-5.322999954223633 C14.394000053405762,-5.322999954223633 11.706000328063965,22.356000900268555 -15.326000213623047,25.398000717163086z"></path></g><g opacity="1" transform="matrix(1,0,0,1,477.30999755859375,245.1230010986328)"><path fill="rgb(15,15,15)" fill-opacity="1" d=" M-99.78900146484375,62.9739990234375 C-69.5770034790039,52.10100173950195 -49.08300018310547,54.959999084472656 -1.8830000162124634,57.999000549316406 C24.444000244140625,59.691001892089844 59.04600143432617,64.13200378417969 103.6050033569336,24.575000762939453 C103.6050033569336,24.575000762939453 130.71600341796875,49.16699981689453 135.58700561523438,93.76200103759766 C137.73599243164062,113.4260025024414 136.88900756835938,163.24000549316406 136.88900756835938,163.24000549316406 C136.88900756835938,163.24000549316406 151.5260009765625,136.87100219726562 160.6959991455078,114.12999725341797 C160.6959991455078,114.12999725341797 185.58700561523438,68.55999755859375 160.10499572753906,-2.934000015258789 C160.10499572753906,-2.934000015258789 155.43699645996094,3.6500000953674316 154.1959991455078,14.201000213623047 C154.1959991455078,14.201000213623047 145.33700561523438,-74.4280014038086 93.34100341796875,-100.4229965209961 C93.34100341796875,-100.4229965209961 85.92500305175781,-117.46099853515625 74.697998046875,-126.322998046875 C74.697998046875,-126.322998046875 62.61600112915039,-121.69499969482422 56.117000579833984,-117.55799865722656 C56.117000579833984,-117.55799865722656 56.117000579833984,-129.96400451660156 37.79800033569336,-129.37399291992188 C37.79800033569336,-129.37399291992188 36.619998931884766,-154.98500061035156 23.6200008392334,-164.23399353027344 C23.6200008392334,-164.23399353027344 11.553999900817871,-153.36000061035156 5.942999839782715,-145.02200317382812 C0.37700000405311584,-136.74099731445312 -1.1950000524520874,-135.8730010986328 -5.921999931335449,-119.9209976196289 C-5.921999931335449,-119.9209976196289 -4.741000175476074,-151.23699951171875 -9.468999862670898,-164.23399353027344 C-9.468999862670898,-164.23399353027344 -42.75600051879883,-104.13400268554688 -110.38700103759766,-64.21499633789062 C-110.38700103759766,-64.21499633789062 -153.66799926757812,-40.29399871826172 -173.9709930419922,12.428999900817871 C-173.9709930419922,12.428999900817871 -185.58700561523438,60.64799880981445 -178.1179962158203,101.22699737548828 C-172.81500244140625,130.03799438476562 -168.9770050048828,137.7220001220703 -153.7550048828125,164.23399353027344 C-153.7550048828125,164.23399353027344 -158.15899658203125,83.99199676513672 -99.78900146484375,62.9739990234375z"></path></g><g opacity="1" transform="matrix(1,0,0,1,477.30999755859375,245.1230010986328)"><path stroke-linecap="butt" stroke-linejoin="miter" fill-opacity="0" stroke-miterlimit="10" stroke="rgb(2,2,2)" stroke-opacity="1" stroke-width="1" d=" M-99.78900146484375,62.9739990234375 C-69.5770034790039,52.10100173950195 -49.08300018310547,54.959999084472656 -1.8830000162124634,57.999000549316406 C24.444000244140625,59.691001892089844 59.04600143432617,64.13200378417969 103.6050033569336,24.575000762939453 C103.6050033569336,24.575000762939453 130.71600341796875,49.16699981689453 135.58700561523438,93.76200103759766 C137.73599243164062,113.4260025024414 136.88900756835938,163.24000549316406 136.88900756835938,163.24000549316406 C136.88900756835938,163.24000549316406 151.5260009765625,136.87100219726562 160.6959991455078,114.12999725341797 C160.6959991455078,114.12999725341797 185.58700561523438,68.55999755859375 160.10499572753906,-2.934000015258789 C160.10499572753906,-2.934000015258789 155.43699645996094,3.6500000953674316 154.1959991455078,14.201000213623047 C154.1959991455078,14.201000213623047 145.33700561523438,-74.4280014038086 93.34100341796875,-100.4229965209961 C93.34100341796875,-100.4229965209961 85.92500305175781,-117.46099853515625 74.697998046875,-126.322998046875 C74.697998046875,-126.322998046875 62.61600112915039,-121.69499969482422 56.117000579833984,-117.55799865722656 C56.117000579833984,-117.55799865722656 56.117000579833984,-129.96400451660156 37.79800033569336,-129.37399291992188 C37.79800033569336,-129.37399291992188 36.619998931884766,-154.98500061035156 23.6200008392334,-164.23399353027344 C23.6200008392334,-164.23399353027344 11.553999900817871,-153.36000061035156 5.942999839782715,-145.02200317382812 C0.37700000405311584,-136.74099731445312 -1.1950000524520874,-135.8730010986328 -5.921999931335449,-119.9209976196289 C-5.921999931335449,-119.9209976196289 -4.741000175476074,-151.23699951171875 -9.468999862670898,-164.23399353027344 C-9.468999862670898,-164.23399353027344 -42.75600051879883,-104.13400268554688 -110.38700103759766,-64.21499633789062 C-110.38700103759766,-64.21499633789062 -153.66799926757812,-40.29399871826172 -173.9709930419922,12.428999900817871 C-173.9709930419922,12.428999900817871 -185.58700561523438,60.64799880981445 -178.1179962158203,101.22699737548828 C-172.81500244140625,130.03799438476562 -168.9770050048828,137.7220001220703 -153.7550048828125,164.23399353027344 C-153.7550048828125,164.23399353027344 -158.15899658203125,83.99199676513672 -99.78900146484375,62.9739990234375z"></path></g><g opacity="1" transform="matrix(1,0,0,1,434.4429931640625,155.45799255371094)"><path fill="rgb(37,36,36)" fill-opacity="1" d=" M-28.1560001373291,6.886000156402588 C-28.1560001373291,6.886000156402588 16.29800033569336,-31.7189998626709 25.136999130249023,-49.42399978637695 C25.136999130249023,-49.42399978637695 44.2859992980957,0.8629999756813049 -13.87399959564209,49.42399978637695 C-13.87399959564209,49.42399978637695 -21.16200065612793,27.082000732421875 3.2079999446868896,-5.61899995803833 C3.2079999446868896,-5.61899995803833 -14.475000381469727,11.38599967956543 -27.89699935913086,9.045000076293945"></path></g><g opacity="1" transform="matrix(1,0,0,1,421.58099365234375,212.59800720214844)"><path fill="rgb(37,36,36)" fill-opacity="1" d=" M-82.91500091552734,92.21600341796875 C-82.91500091552734,92.21600341796875 -76.91000366210938,55.678001403808594 -19.84600067138672,29.649999618530273 C-19.84600067138672,29.649999618530273 13.690999984741211,16.635000228881836 34.7130012512207,-20.902000427246094 C34.7130012512207,-20.902000427246094 59.73899841308594,-53.441001892089844 67.7490005493164,-84.4739990234375 C67.7490005493164,-84.4739990234375 69.7490005493164,-88.9800033569336 72.7509994506836,-91.9800033569336 C75.75499725341797,-94.98400115966797 89.77100372314453,-68.95500183105469 78.75900268554688,-32.41600036621094 C78.75900268554688,-32.41600036621094 73.25299835205078,7.126999855041504 18.694000244140625,28.148000717163086 C18.694000244140625,28.148000717163086 -49.198001861572266,57.66699981689453 -72.40399932861328,85.70800018310547 C-74.3759994506836,88.09100341796875 -77.91000366210938,90.71499633789062 -82.91500091552734,92.21600341796875z"></path></g><g opacity="1" transform="matrix(1,0,0,1,475.5169982910156,218.0070037841797)"><path fill="rgb(37,36,36)" fill-opacity="1" d=" M-97.96800231933594,74.10800170898438 C-97.96800231933594,74.10800170898438 -73.3759994506836,46.73699951171875 -43.04499816894531,37.0359992980957 C-23.53700065612793,30.797000885009766 7.756999969482422,21.47800064086914 28.812000274658203,-2.325000047683716 C28.812000274658203,-2.325000047683716 44.02399826049805,-16.704999923706055 58.558998107910156,-59.077999114990234 C58.558998107910156,-59.077999114990234 62.8650016784668,-73.63300323486328 75.49400329589844,-79.21600341796875 C75.49400329589844,-79.21600341796875 105.75900268554688,-55.89500045776367 96.08899688720703,-18.3439998626709 C92.09400177001953,-2.828000068664551 87.39299774169922,9.576000213623047 50.77899932861328,26.966999053955078 C50.77899932861328,26.966999053955078 16.684999465942383,42.96099853515625 -18.33099937438965,42.07099914550781 C-18.33099937438965,42.07099914550781 -55.40399932861328,43.902000427246094 -91.56199645996094,77.31600189208984 C-91.56199645996094,77.31600189208984 -98.48500061035156,83.26499938964844 -97.96800231933594,74.10800170898438z"></path></g><g opacity="1" transform="matrix(1,0,0,1,550.291015625,245.20700073242188)"><path fill="rgb(37,36,36)" fill-opacity="1" d=" M-49.60900115966797,39.391998291015625 C-49.60900115966797,39.391998291015625 19.12700080871582,23.527999877929688 39.21900177001953,-22.472000122070312 C39.21900177001953,-22.472000122070312 43.97700119018555,-38.86000061035156 50.849998474121094,-44.14899826049805 C50.849998474121094,-44.14899826049805 57.7239990234375,-14.008999824523926 37.10300064086914,2.9070000648498535 C37.10300064086914,2.9070000648498535 9.081999778747559,34.6349983215332 -49.60900115966797,44.150001525878906 C-49.60900115966797,44.150001525878906 -54.875999450683594,40.803001403808594 -49.60900115966797,39.391998291015625z"></path></g><g opacity="1" transform="matrix(1,0,0,1,635.3699951171875,305.7720031738281)"><path fill="rgb(37,36,36)" fill-opacity="1" d=" M-9.590999603271484,45.33100128173828 C-9.590999603271484,45.33100128173828 -2.569999933242798,-0.9259999990463257 0.4480000138282776,-45.33000183105469 C0.4480000138282776,-45.33000183105469 13.020999908447266,-27.211999893188477 8.678000450134277,6.284999847412109 C8.678000450134277,6.284999847412109 5.855999946594238,26.906999588012695 -9.590999603271484,45.33100128173828z"></path></g><g opacity="1" transform="matrix(1,0,0,1,498.59698486328125,617.0239868164062)"><path fill="rgb(250,250,253)" fill-opacity="1" d=" M-7.729000091552734,-4.688000202178955 C-7.729000091552734,-4.688000202178955 2.7790000438690186,-4.690000057220459 2.7790000438690186,-4.690000057220459 C2.7790000438690186,-4.690000057220459 7.729000091552734,1.1299999952316284 7.729000091552734,1.1299999952316284 C7.729000091552734,1.1299999952316284 -1.562999963760376,1.1299999952316284 -1.562999963760376,1.1299999952316284 C-1.562999963760376,1.1299999952316284 -6.224999904632568,4.690000057220459 -6.224999904632568,4.690000057220459 C-6.224999904632568,4.690000057220459 -7.729000091552734,4.690000057220459 -7.729000091552734,4.690000057220459 C-7.729000091552734,4.690000057220459 -7.729000091552734,-4.688000202178955 -7.729000091552734,-4.688000202178955z"></path></g><g opacity="1" transform="matrix(1,0,0,1,488.1730041503906,620.4970092773438)"><path fill="rgb(250,250,253)" fill-opacity="1" d=" M-4.686999797821045,7.729000091552734 C-4.686999797821045,7.729000091552734 -4.688000202178955,-2.7780001163482666 -4.688000202178955,-2.7780001163482666 C-4.688000202178955,-2.7780001163482666 1.1319999694824219,-7.729000091552734 1.1319999694824219,-7.729000091552734 C1.1319999694824219,-7.729000091552734 1.1319999694824219,1.5670000314712524 1.1319999694824219,1.5670000314712524 C1.1319999694824219,1.5670000314712524 4.689000129699707,6.22599983215332 4.689000129699707,6.22599983215332 C4.689000129699707,6.22599983215332 4.689000129699707,7.729000091552734 4.689000129699707,7.729000091552734 C4.689000129699707,7.729000091552734 -4.686999797821045,7.729000091552734 -4.686999797821045,7.729000091552734z"></path></g><g opacity="1" transform="matrix(1,0,0,1,501.635009765625,627.197998046875)"><path fill="rgb(250,250,253)" fill-opacity="1" d=" M4.690000057220459,-7.728000164031982 C4.690000057220459,-7.728000164031982 4.690999984741211,2.7760000228881836 4.690999984741211,2.7760000228881836 C4.690999984741211,2.7760000228881836 -1.1269999742507935,7.728000164031982 -1.1269999742507935,7.728000164031982 C-1.1269999742507935,7.728000164031982 -1.1269999742507935,-1.565999984741211 -1.1269999742507935,-1.565999984741211 C-1.1269999742507935,-1.565999984741211 -4.690999984741211,-6.228000164031982 -4.690999984741211,-6.228000164031982 C-4.690999984741211,-6.228000164031982 -4.690999984741211,-7.728000164031982 -4.690999984741211,-7.728000164031982 C-4.690999984741211,-7.728000164031982 4.690000057220459,-7.728000164031982 4.690000057220459,-7.728000164031982z"></path></g><g opacity="1" transform="matrix(1,0,0,1,491.3900146484375,630.572021484375)"><path fill="rgb(250,250,253)" fill-opacity="1" d=" M7.729000091552734,4.689000129699707 C7.729000091552734,4.689000129699707 -2.7790000438690186,4.690000057220459 -2.7790000438690186,4.690000057220459 C-2.7790000438690186,4.690000057220459 -7.728000164031982,-1.128000020980835 -7.728000164031982,-1.128000020980835 C-7.728000164031982,-1.128000020980835 1.5640000104904175,-1.128000020980835 1.5640000104904175,-1.128000020980835 C1.5640000104904175,-1.128000020980835 6.224999904632568,-4.690000057220459 6.224999904632568,-4.690000057220459 C6.224999904632568,-4.690000057220459 7.729000091552734,-4.690000057220459 7.729000091552734,-4.690000057220459 C7.729000091552734,-4.690000057220459 7.729000091552734,4.689000129699707 7.729000091552734,4.689000129699707z"></path></g><g opacity="1" transform="matrix(1,0,0,1,471.95599365234375,729.9140014648438)"><path fill="rgb(164,164,164)" fill-opacity="1" d=" M165.01300048828125,83.53900146484375 C165.01300048828125,90.34300231933594 159.4429931640625,95.91400146484375 152.63800048828125,95.91400146484375 C152.63800048828125,95.91400146484375 -152.63800048828125,95.91400146484375 -152.63800048828125,95.91400146484375 C-159.44400024414062,95.91400146484375 -165.01400756835938,90.34300231933594 -165.01400756835938,83.53900146484375 C-165.01400756835938,83.53900146484375 -165.01400756835938,-83.53600311279297 -165.01400756835938,-83.53600311279297 C-165.01400756835938,-90.34400177001953 -159.44400024414062,-95.91300201416016 -152.63800048828125,-95.91300201416016 C-152.63800048828125,-95.91300201416016 152.63800048828125,-95.91300201416016 152.63800048828125,-95.91300201416016 C159.4429931640625,-95.91300201416016 165.01300048828125,-90.34400177001953 165.01300048828125,-83.53600311279297 C165.01300048828125,-83.53600311279297 165.01300048828125,83.53900146484375 165.01300048828125,83.53900146484375z"></path></g><g opacity="1" transform="matrix(1,0,0,1,471.95599365234375,729.9140014648438)"><path fill="rgb(146,146,146)" fill-opacity="1" d=" M152.63800048828125,-95.91400146484375 C152.63800048828125,-95.91400146484375 140.8489990234375,-95.91400146484375 140.8489990234375,-95.91400146484375 C140.8489990234375,-95.91400146484375 113.3280029296875,83.53900146484375 -165.01400756835938,83.53900146484375 C-165.01400756835938,90.34300231933594 -159.44400024414062,95.91400146484375 -152.63800048828125,95.91400146484375 C-152.63800048828125,95.91400146484375 152.63800048828125,95.91400146484375 152.63800048828125,95.91400146484375 C159.4429931640625,95.91400146484375 165.01300048828125,90.34300231933594 165.01300048828125,83.53900146484375 C165.01300048828125,83.53900146484375 165.01300048828125,-83.53600311279297 165.01300048828125,-83.53600311279297 C165.01300048828125,-90.34400177001953 159.4429931640625,-95.91400146484375 152.63800048828125,-95.91400146484375z"></path></g><g opacity="1" transform="matrix(1,0,0,1,366.5690002441406,830.218017578125)"><path fill="rgb(255,255,255)" fill-opacity="1" d=" M29.61199951171875,0.4090000092983246 C29.61199951171875,11.460000038146973 27.038999557495117,3.563999891281128 23.865999221801758,3.563999891281128 C23.865999221801758,3.563999891281128 -23.864999771118164,3.563999891281128 -23.864999771118164,3.563999891281128 C-27.038000106811523,3.563999891281128 -29.61199951171875,9.795000076293945 -29.61199951171875,0.4090000092983246 C-29.61199951171875,0.4090000092983246 -29.61199951171875,-5.716000080108643 -29.61199951171875,-5.716000080108643 C-29.61199951171875,-8.890000343322754 -27.038000106811523,-11.461000442504883 -23.864999771118164,-11.461000442504883 C-23.864999771118164,-11.461000442504883 23.865999221801758,-11.461000442504883 23.865999221801758,-11.461000442504883 C27.038999557495117,-11.461000442504883 29.61199951171875,-8.890000343322754 29.61199951171875,-5.716000080108643 C29.61199951171875,-5.716000080108643 29.61199951171875,0.4090000092983246 29.61199951171875,0.4090000092983246z"></path></g><g opacity="1" transform="matrix(1,0,0,1,577.343017578125,828.0780029296875)"><path fill="rgb(255,255,255)" fill-opacity="1" d=" M29.611000061035156,5.926000118255615 C29.611000061035156,9.10099983215332 27.041000366210938,8.437000274658203 23.865999221801758,8.437000274658203 C23.865999221801758,8.437000274658203 -23.865999221801758,8.437000274658203 -23.865999221801758,8.437000274658203 C-27.03700065612793,8.437000274658203 -29.611000061035156,9.321000099182129 -29.611000061035156,6.14900016784668 C-29.611000061035156,6.14900016784668 -29.611000061035156,-3.5759999752044678 -29.611000061035156,-3.5759999752044678 C-29.611000061035156,-6.75 -27.03700065612793,-9.321000099182129 -23.865999221801758,-9.321000099182129 C-23.865999221801758,-9.321000099182129 23.865999221801758,-9.321000099182129 23.865999221801758,-9.321000099182129 C27.041000366210938,-9.321000099182129 29.611000061035156,-6.75 29.611000061035156,-3.5759999752044678 C29.611000061035156,-3.5759999752044678 29.611000061035156,5.926000118255615 29.611000061035156,5.926000118255615z"></path></g><g opacity="1" transform="matrix(1,0,0,1,471.95599365234375,837.8480224609375)"><path fill="rgb(146,146,146)" fill-opacity="1" d=" M165.01300048828125,0 C165.01300048828125,3.98799991607666 161.781005859375,7.2210001945495605 157.79200744628906,7.2210001945495605 C157.79200744628906,7.2210001945495605 -157.79400634765625,7.2210001945495605 -157.79400634765625,7.2210001945495605 C-161.78199768066406,7.2210001945495605 -165.01400756835938,3.98799991607666 -165.01400756835938,0 C-165.01400756835938,-3.98799991607666 -161.78199768066406,-7.2210001945495605 -157.79400634765625,-7.2210001945495605 C-157.79400634765625,-7.2210001945495605 157.79200744628906,-7.2210001945495605 157.79200744628906,-7.2210001945495605 C161.781005859375,-7.2210001945495605 165.01300048828125,-3.98799991607666 165.01300048828125,0z"></path></g><g opacity="1" transform="matrix(0.9980269074440002,0,0,0.9980269074440002,793.8400268554688,429.33599853515625)"><path fill="rgb(234,170,40)" fill-opacity="1" d=" M12.968000411987305,-119.7020034790039 C-52.30699920654297,-119.7020034790039 -105.2239990234375,-66.78600311279297 -105.2239990234375,-1.5110000371932983 C-105.2239990234375,16.461999893188477 -101.19400024414062,33.486000061035156 -94.01799774169922,48.737998962402344 C-94.01799774169922,48.737998962402344 -131.15899658203125,119.7020034790039 -131.15899658203125,119.7020034790039 C-131.15899658203125,119.7020034790039 -60.18299865722656,91.28900146484375 -60.18299865722656,91.28900146484375 C-40.05799865722656,107.17400360107422 -14.663000106811523,116.68099975585938 12.968000411987305,116.68099975585938 C78.24199676513672,116.68099975585938 131.15899658203125,63.76599884033203 131.15899658203125,-1.5110000371932983 C131.15899658203125,-66.78600311279297 78.24199676513672,-119.7020034790039 12.968000411987305,-119.7020034790039z"></path></g><g opacity="1" transform="matrix(0.9980269074440002,0,0,0.9980269074440002,793.8400268554688,459.2340087890625)"><path fill="rgb(210,143,23)" fill-opacity="1" d=" M115.71099853515625,-89.8030014038086 C118.93199920654297,-79.04900360107422 120.68299865722656,-67.66100311279297 120.68299865722656,-55.858001708984375 C120.68299865722656,9.418000221252441 67.76499938964844,62.33399963378906 2.490000009536743,62.33399963378906 C-25.139999389648438,62.33399963378906 -50.5369987487793,52.82699966430664 -70.66100311279297,36.939998626708984 C-70.66100311279297,36.939998626708984 -131.15899658203125,89.8030014038086 -131.15899658203125,89.8030014038086 C-131.15899658203125,89.8030014038086 -60.185001373291016,61.39099884033203 -60.185001373291016,61.39099884033203 C-40.060001373291016,77.2770004272461 -14.663999557495117,86.78299713134766 12.967000007629395,86.78299713134766 C78.24099731445312,86.78299713134766 131.15899658203125,33.86899948120117 131.15899658203125,-31.408000946044922 C131.15899658203125,-52.654998779296875 125.52400207519531,-72.5739974975586 115.71099853515625,-89.8030014038086z"></path></g><g opacity="1" transform="matrix(1,0,0,1,468.9280090332031,304.8489990234375)"><path fill="rgb(13,41,121)" fill-opacity="1" d=" M-181.97999572753906,91.89800262451172 C-182.0780029296875,88.54900360107422 -183.79100036621094,9.27400016784668 -131.52000427246094,-44.555999755859375 C-101.01699829101562,-75.97100067138672 -58.448001861572266,-91.89800262451172 -4.999000072479248,-91.89800262451172 C92.4800033569336,-91.89800262451172 138.6649932861328,-41.86899948120117 160.2429962158203,0.10100000351667404 C183.5229949951172,45.37799835205078 183.79100036621094,89.91799926757812 183.79100036621094,91.79199981689453 C183.79100036621094,91.79199981689453 176.5570068359375,91.79199981689453 176.5570068359375,91.79199981689453 C176.5570068359375,91.3499984741211 176.2550048828125,46.91299819946289 153.69000244140625,3.178999900817871 C123.61900329589844,-55.11000061035156 70.22799682617188,-84.66400146484375 -4.999000072479248,-84.66400146484375 C-56.41899871826172,-84.66400146484375 -97.23999786376953,-69.4739990234375 -126.3290023803711,-39.51599884033203 C-176.49099731445312,12.140999794006348 -174.77099609375,90.8949966430664 -174.7480010986328,91.68599700927734 C-174.7480010986328,91.68599700927734 -181.97999572753906,91.89800262451172 -181.97999572753906,91.89800262451172z"></path></g><g opacity="1" transform="matrix(1,0,0,1,351.89300537109375,498.7139892578125)"><path fill="rgb(13,41,121)" fill-opacity="1" d=" M71.41000366210938,57.63999938964844 C18.02199935913086,57.63999938964844 -20.64900016784668,43.97600173950195 -43.5260009765625,17.027000427246094 C-71.41100311279297,-15.821999549865723 -65.19400024414062,-55.948001861572266 -64.91400146484375,-57.63999938964844 C-64.91400146484375,-57.63999938964844 -57.7760009765625,-56.46900177001953 -57.7760009765625,-56.46900177001953 C-57.8380012512207,-56.08700180053711 -63.683998107910156,-17.825000762939453 -37.946998596191406,12.418999671936035 C-16.49799919128418,37.625 20.29599952697754,50.404998779296875 71.41000366210938,50.404998779296875 C71.41000366210938,50.404998779296875 71.41000366210938,57.63999938964844 71.41000366210938,57.63999938964844z"></path></g><g opacity="1" transform="matrix(1,0,0,1,285.2590026855469,404.96099853515625)"><path fill="rgb(255,142,28)" fill-opacity="1" d=" M23.886999130249023,50.459999084472656 C23.886999130249023,50.459999084472656 23.886999130249023,50.459999084472656 23.886999130249023,50.459999084472656 C-2.496999979019165,50.459999084472656 -23.886999130249023,29.07200050354004 -23.886999130249023,2.687999963760376 C-23.886999130249023,2.687999963760376 -23.886999130249023,-2.687000036239624 -23.886999130249023,-2.687000036239624 C-23.886999130249023,-29.072999954223633 -2.496999979019165,-50.459999084472656 23.886999130249023,-50.459999084472656"></path></g><g opacity="1" transform="matrix(1,0,0,1,307.989990234375,404.96099853515625)"><path fill="rgb(13,41,121)" fill-opacity="1" d=" M10.366000175476074,52.03300094604492 C10.366000175476074,57.75600051879883 5.7220001220703125,62.400001525878906 -0.0010000000474974513,62.400001525878906 C-5.723999977111816,62.400001525878906 -10.366000175476074,57.75600051879883 -10.366000175476074,52.03300094604492 C-10.366000175476074,52.03300094604492 -10.366000175476074,-52.03499984741211 -10.366000175476074,-52.03499984741211 C-10.366000175476074,-57.75699996948242 -5.723999977111816,-62.400001525878906 -0.0010000000474974513,-62.400001525878906 C5.7220001220703125,-62.400001525878906 10.366000175476074,-57.75699996948242 10.366000175476074,-52.03499984741211 C10.366000175476074,-52.03499984741211 10.366000175476074,52.03300094604492 10.366000175476074,52.03300094604492z"></path></g><g opacity="1" transform="matrix(1,0,0,1,654.3889770507812,404.96099853515625)"><path fill="rgb(255,142,28)" fill-opacity="1" d=" M-23.88599967956543,-50.459999084472656 C-23.88599967956543,-50.459999084472656 -23.88599967956543,-50.459999084472656 -23.88599967956543,-50.459999084472656 C2.496000051498413,-50.459999084472656 23.88599967956543,-29.072999954223633 23.88599967956543,-2.687000036239624 C23.88599967956543,-2.687000036239624 23.88599967956543,2.687999963760376 23.88599967956543,2.687999963760376 C23.88599967956543,29.07200050354004 2.496000051498413,50.459999084472656 -23.88599967956543,50.459999084472656"></path></g><g opacity="1" transform="matrix(1,0,0,1,654.3889770507812,407.8219909667969)"><path fill="rgb(236,132,26)" fill-opacity="1" d=" M-1.2059999704360962,-47.599998474121094 C5.415999889373779,-39.4010009765625 9.399999618530273,-28.976999282836914 9.399999618530273,-17.613000869750977 C9.399999618530273,-17.613000869750977 9.399999618530273,-12.23799991607666 9.399999618530273,-12.23799991607666 C9.399999618530273,9.095000267028809 -4.589000225067139,27.14900016784668 -23.88599967956543,33.2869987487793 C-23.88599967956543,33.2869987487793 -23.88599967956543,47.599998474121094 -23.88599967956543,47.599998474121094 C2.496000051498413,47.599998474121094 23.886999130249023,26.211000442504883 23.886999130249023,-0.17299999296665192 C23.886999130249023,-0.17299999296665192 23.886999130249023,-5.547999858856201 23.886999130249023,-5.547999858856201 C23.886999130249023,-23.725000381469727 13.732000350952148,-39.5260009765625 -1.2059999704360962,-47.599998474121094z"></path></g><g opacity="1" transform="matrix(1,0,0,1,631.656982421875,404.96099853515625)"><path fill="rgb(13,41,121)" fill-opacity="1" d=" M-10.368000030517578,-52.03499984741211 C-10.368000030517578,-57.75699996948242 -5.7230000495910645,-62.400001525878906 0,-62.400001525878906 C5.7230000495910645,-62.400001525878906 10.368000030517578,-57.75699996948242 10.368000030517578,-52.03499984741211 C10.368000030517578,-52.03499984741211 10.368000030517578,52.034000396728516 10.368000030517578,52.034000396728516 C10.368000030517578,57.75699996948242 5.7230000495910645,62.400001525878906 0,62.400001525878906 C-5.7230000495910645,62.400001525878906 -10.368000030517578,57.75699996948242 -10.368000030517578,52.034000396728516 C-10.368000030517578,52.034000396728516 -10.368000030517578,-52.03499984741211 -10.368000030517578,-52.03499984741211z"></path></g><g opacity="1" transform="matrix(1,0,0,1,432.70001220703125,552.7360229492188)"><path fill="rgb(13,41,121)" fill-opacity="1" d=" M19.14699935913086,-0.0010000000474974513 C19.14699935913086,10.574999809265137 10.574000358581543,19.14699935913086 0,19.14699935913086 C-10.574999809265137,19.14699935913086 -19.14699935913086,10.574999809265137 -19.14699935913086,-0.0010000000474974513 C-19.14699935913086,-10.572999954223633 -10.574999809265137,-19.14699935913086 0,-19.14699935913086 C10.574000358581543,-19.14699935913086 19.14699935913086,-10.572999954223633 19.14699935913086,-0.0010000000474974513z"></path></g></g><g transform="matrix(1,0,0,1,-30,4)" opacity="1" style="display: block;"><g opacity="1" transform="matrix(1,0,0,1,425.39300537109375,384.8900146484375)"><path fill="rgb(24,24,24)" fill-opacity="1" d=" M-38.428001403808594,28.8799991607666 C-21.02899932861328,21.256999969482422 -17.430999755859375,-10.539999961853027 1.5260000228881836,-11.755000114440918 C19.30900001525879,-12.895000457763672 25.121999740600586,16.694000244140625 41.48099899291992,23.759000778198242 C47.402000427246094,26.31599998474121 39.255001068115234,4.538000106811523 39.255001068115234,4.538000106811523 C39.255001068115234,4.538000106811523 29.489999771118164,-10.026000022888184 18.722999572753906,-13.831000328063965 C5.50600004196167,-18.50200080871582 -4.423999786376953,-18.32699966430664 -15.086000442504883,-14.664999961853027 C-25.034000396728516,-11.248000144958496 -33.983001708984375,-3.2909998893737793 -38.95199966430664,5.980000019073486 C-42.558998107910156,12.710000038146973 -45.422000885009766,31.944000244140625 -38.428001403808594,28.8799991607666z"></path></g><g opacity="1" transform="matrix(1,0,0,1,427.2170104980469,404.3559875488281)"><path fill="rgb(244,244,244)" fill-opacity="1" d=" M39.112998962402344,6.88700008392334 C39.69499969482422,17.690000534057617 30.413000106811523,28.599000930786133 20.899999618530273,33.750999450683594 C10.194000244140625,39.54899978637695 -4.086999893188477,40.65399932861328 -15.52400016784668,36.47999954223633 C-26.916000366210938,32.321998596191406 -41.13600158691406,23.107999801635742 -41.47800064086914,10.986000061035156 C-41.604000091552734,6.51200008392334 -40.93199920654297,1.6690000295639038 -39.52899932861328,-3.0510001182556152 C-36.125,-14.5 -28.41699981689453,-25.219999313354492 -17.347999572753906,-28.17799949645996 C-16.11400032043457,-28.507999420166016 -14.925999641418457,-28.80900001525879 -13.777999877929688,-29.082000732421875 C-7.0289998054504395,-30.68600082397461 -1.6759999990463257,-31.290000915527344 3.2780001163482666,-30.719999313354492 C8.157999992370605,-30.158000946044922 12.651000022888184,-28.45599937438965 17.711999893188477,-25.444000244140625 C26.53499984741211,-20.19300079345703 34.44499969482422,-10.975000381469727 37.645999908447266,-0.9150000214576721 C38.46200180053711,1.6490000486373901 38.97200012207031,4.265999794006348 39.112998962402344,6.88700008392334z"></path></g><g opacity="1" transform="matrix(1,0,0,1,427.60699462890625,409.0799865722656)"><path fill="rgb(17,128,126)" fill-opacity="1" d=" M25.725000381469727,0 C25.725000381469727,14.206999778747559 14.208999633789062,25.72599983215332 0.0020000000949949026,25.72599983215332 C-14.206000328063965,25.72599983215332 -25.725000381469727,14.206999778747559 -25.725000381469727,0 C-25.725000381469727,-14.206999778747559 -14.206000328063965,-25.72599983215332 0.0020000000949949026,-25.72599983215332 C14.208999633789062,-25.72599983215332 25.725000381469727,-14.206999778747559 25.725000381469727,0z"></path></g><g opacity="1" transform="matrix(1,0,0,1,427.60699462890625,409.0799865722656)"><path stroke-linecap="butt" stroke-linejoin="miter" fill-opacity="0" stroke-miterlimit="10" stroke="rgb(20,70,64)" stroke-opacity="1" stroke-width="1" d=" M25.725000381469727,0 C25.725000381469727,14.206999778747559 14.208999633789062,25.72599983215332 0.0020000000949949026,25.72599983215332 C-14.206000328063965,25.72599983215332 -25.725000381469727,14.206999778747559 -25.725000381469727,0 C-25.725000381469727,-14.206999778747559 -14.206000328063965,-25.72599983215332 0.0020000000949949026,-25.72599983215332 C14.208999633789062,-25.72599983215332 25.725000381469727,-14.206999778747559 25.725000381469727,0z"></path></g><g opacity="1" transform="matrix(1,0,0,1,427.1520080566406,410.9020080566406)"><path fill="rgb(26,175,175)" fill-opacity="1" d=" M23.905000686645508,-0.0020000000949949026 C23.905000686645508,13.199000358581543 13.20300006866455,23.90399932861328 -0.0010000000474974513,23.90399932861328 C-13.201000213623047,23.90399932861328 -23.905000686645508,13.199000358581543 -23.905000686645508,-0.0020000000949949026 C-23.905000686645508,-13.20300006866455 -13.201000213623047,-23.90399932861328 -0.0010000000474974513,-23.90399932861328 C13.20300006866455,-23.90399932861328 23.905000686645508,-13.20300006866455 23.905000686645508,-0.0020000000949949026z"></path></g><g opacity="1" transform="matrix(1,0,0,1,427.4930114746094,407.60101318359375)"><path fill="rgb(0,0,0)" fill-opacity="1" d=" M17.187000274658203,-0.0020000000949949026 C17.187000274658203,9.491999626159668 9.494999885559082,17.187999725341797 0.0010000000474974513,17.187999725341797 C-9.494000434875488,17.187999725341797 -17.18600082397461,9.491999626159668 -17.18600082397461,-0.0020000000949949026 C-17.18600082397461,-9.494000434875488 -9.494000434875488,-17.187999725341797 0.0010000000474974513,-17.187999725341797 C9.494999885559082,-17.187999725341797 17.187000274658203,-9.494000434875488 17.187000274658203,-0.0020000000949949026z"></path></g><g opacity="1" transform="matrix(1,0,0,1,440.9840087890625,399.5769958496094)"><path fill="rgb(251,251,251)" fill-opacity="1" d=" M6.090000152587891,4.497000217437744 C6.090000152587891,7.861000061035156 3.859999895095825,10.09000015258789 0.4970000088214874,10.09000015258789 C-2.865000009536743,10.09000015258789 -6.090000152587891,7.861000061035156 -6.090000152587891,4.497000217437744 C-6.090000152587891,1.1390000581741333 -3.365000009536743,-1.590000033378601 -0.003000000026077032,-1.590000033378601 C3.359999895095825,-1.590000033378601 6.090000152587891,1.1390000581741333 6.090000152587891,4.497000217437744z"></path></g><g opacity="1" transform="matrix(1,0,0,1,434.885009765625,412.13800048828125)"><path fill="rgb(251,251,251)" fill-opacity="1" d=" M1.9900000095367432,-0.0020000000949949026 C1.9900000095367432,1.0989999771118164 1.1009999513626099,1.9900000095367432 -0.0010000000474974513,1.9900000095367432 C-1.100000023841858,1.9900000095367432 -1.9900000095367432,1.0989999771118164 -1.9900000095367432,-0.0020000000949949026 C-1.9900000095367432,-1.1030000448226929 -1.100000023841858,-1.9900000095367432 -0.0010000000474974513,-1.9900000095367432 C1.1009999513626099,-1.9900000095367432 1.9900000095367432,-1.1030000448226929 1.9900000095367432,-0.0020000000949949026z"></path></g><g opacity="1" transform="matrix(1,0,0,1,576.958984375,384.8900146484375)"><path fill="rgb(24,24,24)" fill-opacity="1" d=" M38.926998138427734,29.8799991607666 C38.926998138427734,29.8799991607666 37.902000427246094,-12.119000434875488 -1.0260000228881836,-10.755000114440918 C-1.0260000228881836,-10.755000114440918 -2.7309999465942383,-10.66100025177002 -5.459000110626221,-10.074000358581543 C-14.312000274658203,-8.170000076293945 -33.933998107910156,-1.0839999914169312 -40.981998443603516,24.759000778198242 C-40.981998443603516,24.759000778198242 -46.444000244140625,3.244999885559082 -23.222999572753906,-13.831000328063965 C-23.222999572753906,-13.831000328063965 2.2730000019073486,-29.8799991607666 24.584999084472656,-11.664999961853027 C24.584999084472656,-11.664999961853027 46.44300079345703,4.7220001220703125 38.926998138427734,29.8799991607666z"></path></g><g opacity="1" transform="matrix(1,0,0,1,575.135009765625,404.3559875488281)"><path fill="rgb(244,244,244)" fill-opacity="1" d=" M-39.61199951171875,4.38700008392334 C-39.61199951171875,4.38700008392334 -44.165000915527344,26.69700050354004 -21.398000717163086,31.250999450683594 C-21.398000717163086,31.250999450683594 -1.8200000524520874,37.05099868774414 15.026000022888184,33.97999954223633 C15.026000022888184,33.97999954223633 35.058998107910156,31.70599937438965 40.979000091552734,8.486000061035156 C40.979000091552734,8.486000061035156 44.16600036621094,-19.74799919128418 16.849000930786133,-30.67799949645996 C16.849000930786133,-30.67799949645996 -2.7309999465942383,-37.04999923706055 -18.21299934387207,-27.944000244140625 C-18.21299934387207,-27.944000244140625 -36.88100051879883,-17.472000122070312 -39.61199951171875,4.38700008392334z"></path></g><g opacity="1" transform="matrix(1,0,0,1,574.7440185546875,409.0799865722656)"><path fill="rgb(17,128,126)" fill-opacity="1" d=" M-25.724000930786133,0 C-25.724000930786133,14.206999778747559 -14.208000183105469,25.72599983215332 -0.0020000000949949026,25.72599983215332 C14.206999778747559,25.72599983215332 25.724000930786133,14.206999778747559 25.724000930786133,0 C25.724000930786133,-14.206999778747559 14.206999778747559,-25.72599983215332 -0.0020000000949949026,-25.72599983215332 C-14.208000183105469,-25.72599983215332 -25.724000930786133,-14.206999778747559 -25.724000930786133,0z"></path></g><g opacity="1" transform="matrix(1,0,0,1,574.7440185546875,409.0799865722656)"><path stroke-linecap="butt" stroke-linejoin="miter" fill-opacity="0" stroke-miterlimit="10" stroke="rgb(20,70,64)" stroke-opacity="1" stroke-width="1" d=" M-25.724000930786133,0 C-25.724000930786133,14.206999778747559 -14.208000183105469,25.72599983215332 -0.0020000000949949026,25.72599983215332 C14.206999778747559,25.72599983215332 25.724000930786133,14.206999778747559 25.724000930786133,0 C25.724000930786133,-14.206999778747559 14.206999778747559,-25.72599983215332 -0.0020000000949949026,-25.72599983215332 C-14.208000183105469,-25.72599983215332 -25.724000930786133,-14.206999778747559 -25.724000930786133,0z"></path></g><g opacity="1" transform="matrix(1,0,0,1,575.198974609375,410.9020080566406)"><path fill="rgb(26,175,175)" fill-opacity="1" d=" M-23.90399932861328,-0.0020000000949949026 C-23.90399932861328,13.199000358581543 -13.204000473022461,23.90399932861328 0.0010000000474974513,23.90399932861328 C13.199999809265137,23.90399932861328 23.90399932861328,13.199000358581543 23.90399932861328,-0.0020000000949949026 C23.90399932861328,-13.20300006866455 13.199999809265137,-23.90399932861328 0.0010000000474974513,-23.90399932861328 C-13.204000473022461,-23.90399932861328 -23.90399932861328,-13.20300006866455 -23.90399932861328,-0.0020000000949949026z"></path></g><g opacity="1" transform="matrix(1,0,0,1,574.8579711914062,407.60101318359375)"><path fill="rgb(0,0,0)" fill-opacity="1" d=" M-17.187000274658203,-0.0020000000949949026 C-17.187000274658203,8.100000381469727 -8.102999687194824,17.187999725341797 -0.0010000000474974513,17.187999725341797 C8.10200023651123,17.187999725341797 17.18600082397461,8.10099983215332 17.18600082397461,-0.0020000000949949026 C17.18600082397461,-8.104000091552734 8.10099983215332,-17.187999725341797 -0.0010000000474974513,-17.187999725341797 C-8.102999687194824,-17.187999725341797 -17.187000274658203,-8.104000091552734 -17.187000274658203,-0.0020000000949949026z"></path></g><g opacity="1" transform="matrix(1,0,0,1,589.1939697265625,399.5769958496094)"><path fill="rgb(251,251,251)" fill-opacity="1" d=" M6.089000225067139,-0.003000000026077032 C6.089000225067139,3.3610000610351562 3.359999895095825,6.090000152587891 -0.003000000026077032,6.090000152587891 C-3.365999937057495,6.090000152587891 -6.090000152587891,3.3610000610351562 -6.090000152587891,-0.003000000026077032 C-6.090000152587891,-3.3610000610351562 -3.365999937057495,-6.090000152587891 -0.003000000026077032,-6.090000152587891 C3.359999895095825,-6.090000152587891 6.089000225067139,-3.3610000610351562 6.089000225067139,-0.003000000026077032z"></path></g><g opacity="1" transform="matrix(1,0,0,1,585.093994140625,409.13800048828125)"><path fill="rgb(251,251,251)" fill-opacity="1" d=" M1.9900000095367432,-0.0020000000949949026 C1.9900000095367432,1.0989999771118164 1.100000023841858,1.9900000095367432 -0.0010000000474974513,1.9900000095367432 C-1.1009999513626099,1.9900000095367432 -1.9900000095367432,1.0989999771118164 -1.9900000095367432,-0.0020000000949949026 C-1.9900000095367432,-1.1030000448226929 -1.1009999513626099,-1.9900000095367432 -0.0010000000474974513,-1.9900000095367432 C1.100000023841858,-1.9900000095367432 1.9900000095367432,-1.1030000448226929 1.9900000095367432,-0.0020000000949949026z"></path></g></g><g fill="rgb(1,1,1)" font-size="36" font-family="Times New Roman" font-style="normal" font-weight="700" aria-label="Talk To Us" transform="matrix(1.100000023841858,0,0,1.100000023841858,716,440)" opacity="1" style="display: block;"><path stroke-linecap="butt" stroke-linejoin="round" stroke-miterlimit="4" d=" M1.3,-23.84 C1.3,-23.84 1.3,-17.38 1.3,-17.38 C1.3,-17.38 1.97,-17.38 1.97,-17.38 C2.24,-19.14 2.88,-20.5 3.9,-21.45 C4.63,-22.12 5.79,-22.46 7.4,-22.46 C7.4,-22.46 9.12,-22.46 9.12,-22.46 C9.12,-22.46 9.12,-4.08 9.12,-4.08 C9.12,-2.88 9.06,-2.14 8.93,-1.86 C8.75,-1.46 8.51,-1.18 8.21,-1.02 C7.79,-0.77 7.23,-0.65 6.54,-0.65 C6.54,-0.65 5.75,-0.65 5.75,-0.65 C5.75,-0.65 5.75,0 5.75,0 C5.75,0 18.23,0 18.23,0 C18.23,0 18.23,-0.65 18.23,-0.65 C18.23,-0.65 17.44,-0.65 17.44,-0.65 C16.76,-0.65 16.22,-0.76 15.83,-0.99 C15.44,-1.22 15.17,-1.49 15.04,-1.79 C14.9,-2.1 14.84,-2.86 14.84,-4.08 C14.84,-4.08 14.84,-22.46 14.84,-22.46 C14.84,-22.46 16.61,-22.46 16.61,-22.46 C17.72,-22.46 18.5,-22.36 18.95,-22.15 C19.75,-21.76 20.37,-21.24 20.83,-20.59 C21.29,-19.94 21.7,-18.87 22.08,-17.38 C22.08,-17.38 22.71,-17.38 22.71,-17.38 C22.71,-17.38 22.71,-23.84 22.71,-23.84 C22.71,-23.84 1.3,-23.84 1.3,-23.84z M35.26,-0.43 C35.79,0.01 36.52,0.23 37.46,0.23 C38.26,0.23 38.97,0.03 39.59,-0.36 C40.22,-0.75 40.83,-1.38 41.41,-2.25 C41.41,-2.25 40.89,-2.67 40.89,-2.67 C40.57,-2.24 40.26,-2.02 39.96,-2.02 C39.8,-2.02 39.67,-2.07 39.55,-2.16 C39.43,-2.26 39.35,-2.4 39.29,-2.59 C39.23,-2.79 39.2,-3.26 39.2,-4.01 C39.2,-4.01 39.2,-10.39 39.2,-10.39 C39.2,-12.16 39.12,-13.29 38.95,-13.78 C38.68,-14.55 38.09,-15.27 37.19,-15.93 C36.28,-16.6 35.04,-16.93 33.49,-16.93 C32.2,-16.93 30.96,-16.72 29.76,-16.31 C28.56,-15.9 27.63,-15.31 26.97,-14.55 C26.3,-13.78 25.96,-12.97 25.96,-12.13 C25.96,-11.53 26.21,-11.01 26.71,-10.56 C27.21,-10.12 27.83,-9.9 28.56,-9.9 C29.26,-9.9 29.82,-10.1 30.24,-10.5 C30.67,-10.91 30.89,-11.4 30.89,-11.97 C30.89,-12.44 30.66,-12.93 30.22,-13.43 C29.89,-13.79 29.72,-14.1 29.72,-14.34 C29.72,-14.63 29.88,-14.87 30.18,-15.08 C30.67,-15.42 31.3,-15.59 32.06,-15.59 C32.53,-15.59 32.95,-15.47 33.33,-15.23 C33.7,-14.99 33.96,-14.71 34.09,-14.39 C34.23,-14.07 34.3,-13.28 34.3,-12.04 C34.3,-12.04 34.3,-10.39 34.3,-10.39 C30.67,-8.72 28.32,-7.39 27.25,-6.39 C26.17,-5.39 25.63,-4.26 25.63,-3.01 C25.63,-2.08 25.94,-1.31 26.56,-0.69 C27.18,-0.08 27.96,0.23 28.9,0.23 C30.49,0.23 32.29,-0.66 34.3,-2.43 C34.41,-1.54 34.73,-0.87 35.26,-0.43z M32.26,-2.72 C31.73,-2.72 31.32,-2.88 31.03,-3.2 C30.64,-3.61 30.45,-4.08 30.45,-4.62 C30.45,-5.27 30.67,-5.91 31.13,-6.54 C31.82,-7.49 32.88,-8.38 34.3,-9.21 C34.3,-9.21 34.3,-3.71 34.3,-3.71 C33.52,-3.05 32.84,-2.72 32.26,-2.72z M42.77,-23.84 C42.77,-23.84 42.77,-23.19 42.77,-23.19 C43.54,-23.14 44.06,-22.95 44.33,-22.63 C44.6,-22.31 44.74,-21.57 44.74,-20.43 C44.74,-20.43 44.74,-3.41 44.74,-3.41 C44.74,-2.25 44.62,-1.54 44.39,-1.27 C44.03,-0.87 43.49,-0.66 42.77,-0.63 C42.77,-0.63 42.77,0 42.77,0 C42.77,0 51.64,0 51.64,0 C51.64,0 51.64,-0.63 51.64,-0.63 C50.86,-0.68 50.33,-0.86 50.06,-1.19 C49.79,-1.51 49.66,-2.25 49.66,-3.41 C49.66,-3.41 49.66,-23.84 49.66,-23.84 C49.66,-23.84 42.77,-23.84 42.77,-23.84z M53.21,-23.84 C53.21,-23.84 53.21,-23.19 53.21,-23.19 C53.93,-23.09 54.41,-22.89 54.64,-22.59 C54.87,-22.28 54.98,-21.51 54.98,-20.27 C54.98,-20.27 54.98,-3.57 54.98,-3.57 C54.98,-2.31 54.88,-1.56 54.68,-1.3 C54.39,-0.93 53.9,-0.7 53.21,-0.63 C53.21,-0.63 53.21,0 53.21,0 C53.21,0 61.7,0 61.7,0 C61.7,0 61.7,-0.63 61.7,-0.63 C60.97,-0.71 60.49,-0.91 60.26,-1.22 C60.02,-1.53 59.91,-2.31 59.91,-3.57 C59.91,-3.57 59.91,-6.52 59.91,-6.52 C59.91,-6.52 60.96,-7.56 60.96,-7.56 C60.96,-7.56 64.21,-2.8 64.21,-2.8 C64.7,-2.07 64.95,-1.57 64.95,-1.3 C64.95,-1.14 64.86,-0.98 64.7,-0.84 C64.53,-0.7 64.25,-0.63 63.88,-0.63 C63.88,-0.63 63.88,0 63.88,0 C63.88,0 72.37,0 72.37,0 C72.37,0 72.37,-0.63 72.37,-0.63 C71.76,-0.68 71.25,-0.9 70.86,-1.3 C70.56,-1.58 69.64,-2.87 68.08,-5.17 C68.08,-5.17 64.21,-10.83 64.21,-10.83 C64.21,-10.83 66,-12.59 66,-12.59 C67.54,-14.09 68.57,-14.99 69.1,-15.28 C69.63,-15.58 70.24,-15.75 70.94,-15.79 C70.94,-15.79 70.94,-16.44 70.94,-16.44 C70.94,-16.44 63.58,-16.44 63.58,-16.44 C63.58,-16.44 63.58,-15.79 63.58,-15.79 C64.33,-15.69 64.83,-15.54 65.09,-15.33 C65.35,-15.12 65.48,-14.85 65.48,-14.54 C65.48,-14.22 65.38,-13.89 65.19,-13.55 C64.99,-13.21 64.5,-12.66 63.72,-11.9 C63.72,-11.9 59.91,-8.16 59.91,-8.16 C59.91,-8.16 59.91,-23.84 59.91,-23.84 C59.91,-23.84 53.21,-23.84 53.21,-23.84z M82.34,-23.84 C82.34,-23.84 82.34,-17.38 82.34,-17.38 C82.34,-17.38 83,-17.38 83,-17.38 C83.27,-19.14 83.92,-20.5 84.94,-21.45 C85.66,-22.12 86.83,-22.46 88.44,-22.46 C88.44,-22.46 90.16,-22.46 90.16,-22.46 C90.16,-22.46 90.16,-4.08 90.16,-4.08 C90.16,-2.88 90.09,-2.14 89.97,-1.86 C89.79,-1.46 89.55,-1.18 89.25,-1.02 C88.82,-0.77 88.27,-0.65 87.58,-0.65 C87.58,-0.65 86.78,-0.65 86.78,-0.65 C86.78,-0.65 86.78,0 86.78,0 C86.78,0 99.26,0 99.26,0 C99.26,0 99.26,-0.65 99.26,-0.65 C99.26,-0.65 98.47,-0.65 98.47,-0.65 C97.79,-0.65 97.26,-0.76 96.87,-0.99 C96.47,-1.22 96.21,-1.49 96.07,-1.79 C95.94,-2.1 95.87,-2.86 95.87,-4.08 C95.87,-4.08 95.87,-22.46 95.87,-22.46 C95.87,-22.46 97.65,-22.46 97.65,-22.46 C98.76,-22.46 99.54,-22.36 99.99,-22.15 C100.78,-21.76 101.41,-21.24 101.87,-20.59 C102.32,-19.94 102.74,-18.87 103.11,-17.38 C103.11,-17.38 103.75,-17.38 103.75,-17.38 C103.75,-17.38 103.75,-23.84 103.75,-23.84 C103.75,-23.84 82.34,-23.84 82.34,-23.84z M108.4,-14.3 C107.03,-12.55 106.35,-10.49 106.35,-8.14 C106.35,-5.85 107.02,-3.84 108.35,-2.11 C109.69,-0.37 111.59,0.49 114.07,0.49 C116.58,0.49 118.56,-0.46 119.99,-2.36 C121.17,-3.93 121.76,-5.88 121.76,-8.21 C121.76,-9.83 121.45,-11.31 120.81,-12.67 C120.17,-14.03 119.23,-15.08 118,-15.82 C116.77,-16.56 115.44,-16.93 114.01,-16.93 C111.63,-16.93 109.76,-16.05 108.4,-14.3z M115.28,-15.31 C115.71,-14.97 116.04,-14.43 116.26,-13.68 C116.49,-12.94 116.6,-11.57 116.6,-9.58 C116.6,-6.19 116.48,-3.94 116.25,-2.83 C116.09,-2.12 115.79,-1.56 115.33,-1.16 C114.98,-0.87 114.54,-0.72 114.01,-0.72 C113.47,-0.72 112.99,-0.94 112.57,-1.37 C112.15,-1.8 111.87,-2.44 111.75,-3.27 C111.58,-4.36 111.5,-5.53 111.5,-6.79 C111.5,-9.15 111.57,-11 111.7,-12.33 C111.84,-13.66 112.12,-14.55 112.54,-15 C112.97,-15.45 113.49,-15.68 114.08,-15.68 C114.58,-15.68 114.97,-15.56 115.28,-15.31z M132.89,-23.19 C133.9,-23.2 134.59,-23.1 134.97,-22.9 C135.34,-22.7 135.6,-22.44 135.76,-22.1 C135.91,-21.77 135.99,-20.92 135.99,-19.55 C135.99,-19.55 135.99,-7.88 135.99,-7.88 C135.99,-5.89 136.3,-4.32 136.93,-3.15 C137.57,-1.97 138.65,-1.01 140.19,-0.26 C141.31,0.29 142.91,0.56 144.97,0.56 C147.44,0.56 149.39,0.04 150.82,-1 C152.25,-2.04 153.15,-3.19 153.52,-4.43 C153.89,-5.67 154.07,-7.69 154.07,-10.49 C154.07,-10.49 154.07,-19.55 154.07,-19.55 C154.07,-20.52 154.15,-21.19 154.3,-21.57 C154.5,-22.11 154.82,-22.51 155.27,-22.78 C155.71,-23.05 156.27,-23.19 156.94,-23.19 C156.94,-23.19 157.43,-23.19 157.43,-23.19 C157.43,-23.19 157.43,-23.84 157.43,-23.84 C157.43,-23.84 149.19,-23.84 149.19,-23.84 C149.19,-23.84 149.19,-23.19 149.19,-23.19 C150.15,-23.19 150.89,-23.05 151.42,-22.78 C151.76,-22.61 152.04,-22.29 152.26,-21.83 C152.49,-21.38 152.6,-20.61 152.6,-19.55 C152.6,-19.55 152.6,-9.83 152.6,-9.83 C152.6,-7.3 152.37,-5.52 151.92,-4.5 C151.47,-3.48 150.79,-2.68 149.88,-2.1 C148.97,-1.52 147.87,-1.23 146.59,-1.23 C145.46,-1.23 144.53,-1.46 143.79,-1.92 C143.05,-2.37 142.52,-2.95 142.2,-3.64 C141.88,-4.33 141.72,-5.74 141.72,-7.88 C141.72,-7.88 141.72,-19.55 141.72,-19.55 C141.72,-20.91 141.79,-21.76 141.94,-22.1 C142.08,-22.44 142.33,-22.7 142.67,-22.9 C143.02,-23.09 143.66,-23.19 144.58,-23.19 C144.58,-23.19 145.2,-23.19 145.2,-23.19 C145.2,-23.19 145.2,-23.84 145.2,-23.84 C145.2,-23.84 132.89,-23.84 132.89,-23.84 C132.89,-23.84 132.89,-23.19 132.89,-23.19z M169.05,-16.89 C168.77,-16.48 168.56,-16.23 168.44,-16.15 C168.31,-16.06 168.14,-16.01 167.93,-16.01 C167.73,-16.01 167.47,-16.1 167.15,-16.28 C166.32,-16.71 165.46,-16.93 164.57,-16.93 C162.92,-16.93 161.65,-16.41 160.78,-15.39 C159.91,-14.36 159.47,-13.22 159.47,-11.95 C159.47,-10.79 159.86,-9.73 160.63,-8.77 C161.16,-8.12 162.32,-7.17 164.11,-5.92 C165.33,-5.09 166.12,-4.47 166.47,-4.06 C166.82,-3.65 166.99,-3.16 166.99,-2.6 C166.99,-2.11 166.82,-1.69 166.46,-1.34 C166.1,-1 165.64,-0.83 165.08,-0.83 C164.26,-0.83 163.39,-1.21 162.47,-1.99 C161.55,-2.76 160.82,-3.92 160.3,-5.47 C160.3,-5.47 159.7,-5.47 159.7,-5.47 C159.7,-5.47 159.98,0.44 159.98,0.44 C159.98,0.44 160.56,0.44 160.56,0.44 C160.82,-0.15 161.14,-0.44 161.53,-0.44 C161.66,-0.44 161.9,-0.38 162.25,-0.25 C163.56,0.25 164.61,0.49 165.39,0.49 C166.4,0.49 167.32,0.26 168.15,-0.21 C168.99,-0.68 169.63,-1.35 170.09,-2.23 C170.55,-3.11 170.77,-4.01 170.77,-4.92 C170.77,-5.93 170.5,-6.84 169.96,-7.66 C169.41,-8.47 168.28,-9.46 166.56,-10.63 C164.83,-11.79 163.78,-12.62 163.41,-13.1 C163.17,-13.39 163.06,-13.69 163.06,-14.01 C163.06,-14.43 163.23,-14.8 163.57,-15.13 C163.91,-15.45 164.32,-15.61 164.8,-15.61 C165.56,-15.61 166.32,-15.3 167.09,-14.7 C167.86,-14.09 168.6,-12.95 169.31,-11.29 C169.31,-11.29 169.91,-11.29 169.91,-11.29 C169.91,-11.29 169.65,-16.89 169.65,-16.89 C169.65,-16.89 169.05,-16.89 169.05,-16.89z" style="display: inherit;"></path></g></g></svg>